<?xml version="1.0" encoding="UTF-8"?>
<svg xmlns="http://www.w3.org/2000/svg" xmlns:xlink="http://www.w3.org/1999/xlink" version="1.1" id="レイヤー_1" x="0px" y="0px" width="256.7px" height="38.2px" viewBox="0 0 256.7 38.2" style="enable-background:new 0 0 256.7 38.2;" xml:space="preserve">
<style type="text/css">
	.st0{fill:#FFFFFF;}
</style>
<path class="st0" d="M27.3,25c0,2.4,0.1,3.4,0.3,5.2c-2.8,1.6-4.3,2.2-6.4,2.7c-1.8,0.5-4,0.8-5.9,0.8c-5,0-8.8-1.6-11.4-4.6  C1.5,26.2,0.2,21.9,0.2,17C0.1,10.6,2.4,5.7,6.5,2.9c2.5-1.7,5.2-2.4,8.9-2.4c3.7,0,7,1.2,9.2,3.4c1.4,1.4,2.2,2.5,2.9,4.7l-5.5,1.5  c-1.3-3.7-3.2-5-7.4-5c-2.4,0-4.6,0.9-6.1,2.4c-2,2.1-2.9,5-2.9,9.1s0.9,7.3,2.7,9.3c1.7,1.9,3.8,2.7,7,2.7c2.7,0,4.7-0.5,6.8-1.8  v-6.5H20c-2,0-2.9,0.1-4.1,0.2v-5c1.4,0.2,2.3,0.2,4.8,0.2h2.1c1.9,0,3-0.1,4.7-0.1c-0.2,1.5-0.3,2.7-0.3,5L27.3,25L27.3,25z"></path>
<path class="st0" d="M32.8,33.7c0.2-1.6,0.3-3,0.3-5.2V6.9c0-1.9-0.1-3.4-0.3-5.2c1.7,0.1,2.9,0.1,5.1,0.1h8.3  c3.9,0,6.6,0.9,8.5,2.9c1.7,1.6,2.4,4,2.4,6.9c0,3-0.9,5.5-2.7,7.3c-1.9,1.9-4.7,2.9-8.5,2.9h-7.6v6.7c0,2.2,0.1,3.7,0.3,5.2H32.8  L32.8,33.7z M46,17.3c3.7,0,5.7-1.9,5.7-5.5c0-1.6-0.4-2.9-1.3-3.9c-0.9-1-2.2-1.4-4.4-1.4h-7.6v10.8H46z"></path>
<path class="st0" d="M81.6,33.7c-0.1-0.9-0.8-3-2.1-6.4c-2.2-5.5-3.5-7-6.6-7h-6v8.2c0,2.4,0.1,3.7,0.3,5.2h-6  c0.2-1.7,0.3-2.7,0.3-5.2V7.1c0-2.2-0.1-3.3-0.3-5.2C62.9,2,64.2,2,66.4,2H76c6.1,0,9.6,3,9.6,8.3c0,2.6-0.6,4.6-2,6  c-1.1,1.1-2.2,1.7-4.5,2.3c2.5,0.8,3.3,1.9,7.3,11.3c0.3,0.7,1.3,2.9,1.9,4L81.6,33.7L81.6,33.7z M75,15.7c1.5,0,2.9-0.5,3.8-1.4  c0.9-0.9,1.3-2,1.3-3.5c0-2.9-1.7-4.4-5-4.4h-8.2v9.3H75L75,15.7z"></path>
<path class="st0" d="M116.7,4.5c2.9,2.9,4.5,7.3,4.5,12.5c0,10.1-5.9,16.7-14.9,16.7S91.2,27.2,91.2,17c0-5.2,1.6-9.6,4.5-12.5  c2.7-2.7,6.1-4,10.3-4C110.5,0.6,113.9,1.8,116.7,4.5L116.7,4.5z M115.5,17c0-4-1.1-7.3-3.2-9.3c-1.7-1.6-3.7-2.4-6.2-2.4  c-5.7,0-9.4,4.6-9.4,11.8c0,4,1.1,7.3,3.2,9.5c1.7,1.6,3.7,2.4,6.2,2.4C111.9,29,115.5,24.4,115.5,17L115.5,17z"></path>
<path class="st0" d="M154.1,25.9c-0.6,2.2-1.1,3.3-2,4.5c-1.7,2.1-4.6,3.3-8.2,3.3c-3.3,0-5.9-1-7.8-2.9c-2.1-2.2-3.3-5.6-3.3-9.4  c0-4,1.3-7.5,3.5-9.7c1.8-1.9,4.5-2.9,7.5-2.9c2.4,0,4.1,0.4,5.7,1.4c1.4,0.9,2.4,1.9,3.2,3.3c0.4,0.6,0.6,1.1,0.9,2.3l-4.2,0.9  c-0.4-1.3-0.7-1.9-1.3-2.6c-1-1.2-2.5-1.9-4.4-1.9c-4.2,0-6.8,3.3-6.8,8.8s2.7,8.9,6.8,8.9c2.1,0,3.9-0.8,4.9-2.2  c0.5-0.7,0.7-1.4,1-2.7L154.1,25.9L154.1,25.9z"></path>
<path class="st0" d="M156.5,24.6c0-5.6,3.5-9.2,9-9.2s8.9,3.5,8.9,9.1s-3.5,9.2-8.9,9.2C160,33.7,156.5,30.2,156.5,24.6L156.5,24.6z   M160.3,24.6c0,3.7,1.9,6,5,6c3.2,0,5-2.2,5-5.9c0-3.9-1.8-6.1-5-6.1C162.3,18.6,160.3,20.8,160.3,24.6L160.3,24.6z"></path>
<path class="st0" d="M177.4,33.7v-4.4h4.4v4.4H177.4z"></path>
<path class="st0" d="M189.8,33.6c0,2.6-0.6,3.5-3.1,4.5l-1.1-1.6c1.8-0.5,2.2-1.1,2.3-2.9h-2.5v-4.4h4.4L189.8,33.6L189.8,33.6z"></path>
<path class="st0" d="M216,33.7c-1.1-0.1-2.2-0.2-4.2-0.2h-8.9c-1.7,0-2.7,0-3.8,0.1c0.1-1.1,0.2-2.2,0.2-4V14c0-2.1-0.1-3.2-0.2-4.5  h4.5c-0.1,1.2-0.2,2.2-0.2,4.4v15.9h8.4c2.1,0,3-0.1,4.2-0.2V33.7L216,33.7z"></path>
<path class="st0" d="M224.4,11.4c-0.1,1.1-0.2,2.4-0.2,3.7V16h1.3c1.4,0,2.1,0,3-0.2v3.5c-1-0.1-1.6-0.2-2.9-0.2h-1.4v9.3  c0,1.5,0.6,2,2,2c0.8,0,1.3-0.1,2.2-0.6L229,33c-1.3,0.5-2.2,0.6-3.7,0.6c-3.4,0-4.8-1.2-4.8-4.4v-10h-1.1c-1.1,0-1.7,0-2.7,0.2V16  c0.9,0.1,1.4,0.2,2.7,0.2h1.1v-0.9c0-1.3-0.1-2.6-0.2-3.7L224.4,11.4L224.4,11.4z"></path>
<path class="st0" d="M244.6,31.8c0-0.4,0-0.7,0-1.1c-1.6,2.2-3.2,2.9-6,2.9c-2.1,0-3.7-0.5-5-1.5c-2-1.6-3.1-4.3-3.1-7.5  c0-5.5,3.2-9,8.1-9c1.9,0,3.4,0.4,4.6,1.4c0.6,0.4,0.9,0.8,1.5,1.7c0-0.2,0-0.6,0-0.9c0-0.2,0-0.8,0-1.3v-3c0-1.8-0.1-2.8-0.2-4h4.2  c-0.1,1.4-0.2,2.5-0.2,4v15.8c0,1.8,0.1,2.7,0.2,4h-4L244.6,31.8L244.6,31.8z M239.3,30.5c1.6,0,3.1-0.7,4-2c0.7-1,1.1-2.4,1.1-4  c0-1.5-0.6-3-1.4-4c-0.9-1-2.4-1.7-3.9-1.7c-2.9,0-4.8,2.3-4.8,5.9S236.3,30.5,239.3,30.5L239.3,30.5z"></path>
<path class="st0" d="M252.4,33.7v-4.4h4.4v4.4H252.4z"></path>
</svg>
