<?xml version="1.0" encoding="iso-8859-1"?>
<!-- Generator: Adobe Illustrator 19.0.0, SVG Export Plug-In . SVG Version: 6.00 Build 0)  -->
<svg version="1.1" id="Capa_1" xmlns="http://www.w3.org/2000/svg" xmlns:xlink="http://www.w3.org/1999/xlink" x="0px" y="0px"
	 viewBox="0 0 512 512" style="enable-background:new 0 0 512 512;" xml:space="preserve">
<g>
	<g>
		<path d="M200.011,60.004h-15H0v391.992h185.011h15h170.011V60.004H200.011z M170.011,421.996H30V90.004h140.011V421.996z
			 M340.021,421.996h-140.01V90.004h140.01V421.996z"/>
	</g>
</g>
<g>
	<g>
		<polygon points="458.964,99.575 405.929,152.611 427.142,173.824 443.964,157.001 443.964,210.794 473.964,210.794 
			473.964,157.001 490.787,173.824 512,152.611 		"/>
	</g>
</g>
<g>
	<g>
		<polygon points="490.787,338.176 473.964,354.998 473.964,301.205 443.964,301.205 443.964,354.998 427.142,338.176 
			405.929,359.389 458.964,412.424 512,359.389 		"/>
	</g>
</g>
<g>
</g>
<g>
</g>
<g>
</g>
<g>
</g>
<g>
</g>
<g>
</g>
<g>
</g>
<g>
</g>
<g>
</g>
<g>
</g>
<g>
</g>
<g>
</g>
<g>
</g>
<g>
</g>
<g>
</g>
</svg>
