<svg xmlns="http://www.w3.org/2000/svg" viewBox="0 0 79 81" fill="currentColor"><path d="M77.8528 27.201L42.2107 0.822773C40.7194 -0.274258 38.6364 -0.274258 37.1452 0.822773L1.50303 27.201C1.2078 27.4228 1.01055 27.7563 0.95401 28.117C0.897475 28.4777 0.996098 28.8527 1.22162 29.1446L4.59864 33.5873C5.06286 34.1984 5.9492 34.3229 6.56858 33.8649L7.31421 33.3096V79.1243C7.31421 79.8879 7.9474 80.5127 8.7213 80.5127H70.6335C71.4074 80.5127 72.0406 79.8879 72.0406 79.1243V33.3096L72.7862 33.8649C73.0394 34.0595 73.3352 34.1426 73.6305 34.1426C74.0526 34.1426 74.4747 33.948 74.7562 33.5873L78.1332 29.1446C78.3581 28.8533 78.4567 28.4783 78.4008 28.117C78.3442 27.7563 78.1476 27.4228 77.8518 27.201H77.8528ZM22.7928 77.736V74.9594H56.5631V77.736H22.7928ZM46.7134 66.6294H32.6425V47.1929H46.7134V66.6294ZM53.7489 69.4061V72.1827H25.607V69.4061H53.7489ZM69.2269 77.736H59.3773V73.571C59.3773 72.8075 58.7441 72.1827 57.9702 72.1827H56.5631V68.0177C56.5631 67.2542 55.9299 66.6294 55.156 66.6294H49.5276V45.8045C49.5276 45.0409 48.8944 44.4162 48.1205 44.4162H31.2354C30.4615 44.4162 29.8283 45.0409 29.8283 45.8045V66.6294H24.1999C23.426 66.6294 22.7928 67.2542 22.7928 68.0177V72.1827H21.3857C20.6118 72.1827 19.9786 72.8075 19.9786 73.571V77.736H10.1289V31.2279L39.6779 9.36217L69.2269 31.2279V77.736ZM73.3496 30.8106L40.5217 6.5157C40.2686 6.33535 39.9727 6.23804 39.6774 6.23804C39.3822 6.23804 39.0863 6.33534 38.8332 6.5157L6.00526 30.8106L4.31674 28.5893L38.8332 3.04409C39.3257 2.66912 40.0292 2.66912 40.5217 3.04409L75.0382 28.5893L73.3496 30.8106Z" fill="currentColor"></path><path d="M55.156 58.2995H63.5985C64.3724 58.2995 65.0056 57.6747 65.0056 56.9111V45.8045C65.0056 45.0409 64.3724 44.4162 63.5985 44.4162H55.156C54.3821 44.4162 53.7489 45.0409 53.7489 45.8045V56.9111C53.7489 57.6747 54.3821 58.2995 55.156 58.2995ZM56.5631 47.1929H62.1914V55.5228H56.5631V47.1929Z" fill="currentColor"></path><path d="M31.2354 24.9796C30.4615 24.9796 29.8283 25.6044 29.8283 26.368V34.6979C29.8283 35.4615 30.4615 36.0863 31.2354 36.0863H48.1205C48.8944 36.0863 49.5276 35.4615 49.5276 34.6979V26.368C49.5276 25.6044 48.8944 24.9796 48.1205 24.9796H31.2354ZM32.6425 27.7563H38.2708V33.3096H32.6425V27.7563ZM46.7134 33.3096H41.085V27.7563H46.7134V33.3096Z" fill="currentColor"></path><path d="M24.1999 44.4162H15.7573C14.9834 44.4162 14.3502 45.0409 14.3502 45.8045V56.9111C14.3502 57.6747 14.9834 58.2995 15.7573 58.2995H24.1999C24.9738 58.2995 25.607 57.6747 25.607 56.9111V45.8045C25.607 45.0409 24.9738 44.4162 24.1999 44.4162ZM22.7928 55.5228H17.1644V47.1929H22.7928V55.5228Z" fill="currentColor"></path></svg>