<svg xmlns="http://www.w3.org/2000/svg" xmlns:xlink="http://www.w3.org/1999/xlink" id="Layer_1" x="0px" y="0px" viewBox="0 0 24 24" style="enable-background:new 0 0 24 24;" xml:space="preserve">  <g>    <defs>      <rect id="SVGID_1_" width="24" height="24"></rect>    </defs>    <clipPath id="SVGID_00000041269666127249905140000009951257306060815527_">      <use xlink:href="#SVGID_1_" style="overflow:visible;"></use>    </clipPath>    <g style="clip-path:url(#SVGID_00000041269666127249905140000009951257306060815527_);">      <path d="M3,2.8c0-1.3,0-1.9,0.3-2.3C3.5,0.2,3.9,0,4.2,0c0.4,0,1,0.3,2,1l13.8,9.2c0.9,0.6,1.3,0.9,1.5,1.2c0.1,0.3,0.1,0.7,0,1   c-0.2,0.4-0.6,0.7-1.5,1.2L6.3,23c-1.1,0.7-1.6,1.1-2,1c-0.4,0-0.7-0.2-1-0.5C3,23.1,3,22.5,3,21.2V2.8z"></path>    </g>  </g></svg>