<svg xmlns="http://www.w3.org/2000/svg" width="214" height="146" viewBox="0 0 214 146" fill="none"><path d="M65.2614 83.2589C64.5794 79.0019 60.6974 75.7259 56.0114 75.7259C51.3254 75.7259 47.4434 79.0029 46.7614 83.2589H45.8145C46.5045 78.5119 50.8075 74.8389 56.0105 74.8389C61.2135 74.8389 65.5175 78.5109 66.2065 83.2589H65.2614Z" fill="#94792F"></path><path d="M45.8145 82.8159H66.2075V125.358H45.8145V82.8159ZM65.2794 83.7019H46.7404V124.471H65.2794V83.7019Z" fill="#94792F"></path><path d="M46.4866 111.585C46.6336 111.605 46.7826 111.617 46.9306 111.634C46.9076 115.718 46.9405 119.804 47.1185 123.874C46.9755 123.953 46.9805 124.15 47.1315 124.22C47.1325 124.238 47.1326 124.257 47.1336 124.276C47.1426 124.467 47.4216 124.467 47.4306 124.276C47.4306 124.272 47.4306 124.268 47.4306 124.263C50.2216 124.422 53.0456 124.326 55.8416 124.311C55.8456 124.328 55.8466 124.346 55.8506 124.363C55.9246 124.674 56.4056 124.673 56.4786 124.363C56.4826 124.347 56.4836 124.329 56.4876 124.313C59.1866 124.318 61.9466 124.428 64.6246 124.168C64.7426 124.34 65.0506 124.307 65.0616 124.044C65.2236 119.905 65.1936 115.747 65.1466 111.592C65.2706 111.572 65.3965 111.558 65.5195 111.536C65.8305 111.478 65.8305 110.965 65.5195 110.908C65.3935 110.885 65.2646 110.871 65.1386 110.85C65.1116 108.538 65.0846 106.227 65.0826 103.922C65.0806 101.355 65.1345 98.7662 65.1715 96.1732C65.3075 96.1492 65.4465 96.1332 65.5805 96.1052C65.8325 96.0522 65.8325 95.6482 65.5805 95.5952C65.4485 95.5672 65.3125 95.5522 65.1785 95.5282C65.2275 91.7252 65.2216 87.9172 64.9366 84.1612C64.9776 84.1102 65.0015 84.0442 64.9905 83.9652C64.4595 80.2052 61.0765 76.0532 56.9295 76.2462C56.8675 76.2492 56.8565 76.3342 56.9155 76.3532C58.8515 76.9692 60.5935 77.4042 62.0805 78.9112C63.4495 80.2982 64.2426 82.1912 64.5226 84.0942C64.5386 84.2022 64.6095 84.2412 64.6885 84.2522C64.4125 87.9402 64.4035 91.6762 64.4505 95.4102C61.9075 95.0902 59.1725 95.3622 56.6416 95.3692C56.6416 92.8742 56.6396 90.3802 56.6386 87.8852C56.6386 86.8482 56.6606 85.7992 56.6856 84.7432C59.2576 84.8682 61.9195 84.8132 64.4285 84.6142C64.5825 84.6022 64.5825 84.3872 64.4285 84.3752C61.9215 84.1772 59.2645 84.1212 56.6975 84.2462C56.7725 81.2002 56.8525 78.1132 56.4935 75.1482C56.4425 74.7242 55.8855 74.7252 55.8345 75.1482C55.4725 78.1362 55.5565 81.2462 55.6325 84.3132C55.3475 84.3332 55.0555 84.3422 54.7745 84.3672C54.6115 84.3822 54.6115 84.6062 54.7745 84.6202C55.0585 84.6452 55.3536 84.6552 55.6416 84.6752C55.6676 85.7532 55.6906 86.8252 55.6896 87.8832C55.6886 90.3762 55.6866 92.8692 55.6866 95.3612C52.9726 95.3302 50.1976 95.1982 47.4966 95.4062C47.4946 91.5872 47.4976 87.7692 47.4186 83.9522C47.4146 83.7752 47.1476 83.7752 47.1436 83.9522C47.0646 87.7792 47.0665 91.6082 47.0635 95.4362C46.9305 95.4482 46.7956 95.4492 46.6636 95.4642C46.1696 95.5172 46.1706 96.1792 46.6636 96.2322C46.7956 96.2462 46.9305 96.2472 47.0625 96.2592C47.0595 98.8772 47.0536 101.496 47.0126 104.113C46.9776 106.341 46.9515 108.573 46.9345 110.807C46.7855 110.824 46.6345 110.836 46.4855 110.857C46.1265 110.907 46.1276 111.536 46.4866 111.585ZM47.6325 112.465C47.6315 112.214 47.6365 111.962 47.6355 111.71C50.2695 111.935 52.9925 111.759 55.6285 111.745C55.6275 111.887 55.6276 112.03 55.6266 112.172C52.9316 112.188 50.2465 112.29 47.6325 112.465ZM55.6866 96.3362C55.6866 96.4052 55.6866 96.4752 55.6866 96.5442C53.0386 96.5902 50.3945 96.7052 47.8225 96.8442C47.7105 96.8502 47.7105 97.0122 47.8225 97.0182C50.3945 97.1572 53.0386 97.2722 55.6856 97.3182C55.6866 98.2672 55.6875 99.2172 55.6845 100.167C55.6725 103.677 55.6515 107.187 55.6325 110.698C52.9965 110.684 50.2656 110.508 47.6296 110.733C47.6126 108.525 47.5865 106.317 47.5495 104.115C47.5065 101.508 47.5005 98.9002 47.4975 96.2912C50.1975 96.4992 52.9736 96.3682 55.6866 96.3362ZM64.4775 112.458C61.9375 112.272 59.3255 112.184 56.7045 112.176C56.7035 112.035 56.7036 111.893 56.7026 111.752C59.2546 111.792 61.9485 112 64.4845 111.693C64.4815 111.948 64.4795 112.203 64.4775 112.458ZM64.4685 96.7332C61.9065 96.5542 59.2776 96.5032 56.6436 96.5302C56.6436 96.4642 56.6436 96.3972 56.6436 96.3312C59.1796 96.3382 61.9146 96.6122 64.4616 96.2902C64.4636 96.4372 64.4665 96.5852 64.4685 96.7332ZM64.5486 103.922C64.5476 106.195 64.5205 108.473 64.4935 110.752C61.9515 110.442 59.2575 110.651 56.6965 110.691C56.6775 107.183 56.6565 103.675 56.6445 100.167C56.6415 99.2222 56.6426 98.2772 56.6436 97.3322C59.2796 97.3602 61.9106 97.3082 64.4746 97.1292C64.5096 99.4022 64.5506 101.671 64.5486 103.922ZM56.5876 123.775C57.2376 120.395 56.7845 116.504 56.7175 113.047C59.3335 113.039 61.9386 112.95 64.4746 112.765C64.4376 116.487 64.4245 120.209 64.5665 123.916C61.9395 123.667 59.2356 123.768 56.5876 123.775ZM47.4475 123.824C47.6075 120.145 47.6425 116.451 47.6325 112.758C50.2415 112.933 52.9236 113.035 55.6126 113.05C55.5456 116.503 55.0945 120.402 55.7435 123.776C52.9845 123.76 50.2005 123.668 47.4475 123.824Z" fill="#94792F"></path><path d="M54.4507 76.264C54.5487 76.251 54.5957 76.393 54.4927 76.418C52.9727 76.78 51.4777 77.508 50.3807 78.639C49.2917 79.76 48.9177 81.08 48.3007 82.464C48.2557 82.566 48.0967 82.511 48.0977 82.409C48.1367 79.328 51.6607 76.647 54.4507 76.264Z" fill="#94792F"></path><path d="M52.1315 68.0772C52.6945 70.1312 53.1625 72.2052 53.7475 74.2542C53.7945 74.4212 53.9615 74.5042 54.1245 74.4682C55.3355 74.2052 56.4995 74.1362 57.7275 74.2722C57.8415 74.2852 57.9645 74.1782 57.9895 74.0732C58.4055 72.3392 59.0335 70.4652 59.0465 68.6692C59.0735 68.5922 59.0435 68.5192 58.9895 68.4632C59.2345 68.3762 59.2996 67.9742 58.9826 67.8902C56.8066 67.3102 54.5395 67.4222 52.3265 67.7342C52.1765 67.7542 52.0955 67.9452 52.1315 68.0772ZM52.7485 68.2572C54.7475 68.1132 56.6805 67.9482 58.6535 68.4492C58.6335 68.4732 58.6145 68.5002 58.6015 68.5382C58.0605 70.1882 57.9185 72.0082 57.5115 73.7102C56.4115 73.5852 55.3475 73.6142 54.2605 73.8232C53.7225 71.9792 53.1695 70.1322 52.7485 68.2572Z" fill="#94792F"></path><path d="M58.3533 74.526C58.8673 74.725 59.3803 74.928 59.8963 75.124C60.2413 75.256 61.0773 75.704 61.4443 75.703C61.6433 75.702 61.7123 75.746 61.8803 75.663C62.3603 75.426 62.7423 74.444 63.0063 74.019C63.4433 73.317 63.8973 72.622 64.3053 71.902C64.8193 70.995 64.8153 70.646 64.0273 70.063C62.9223 69.246 61.7413 68.568 60.3533 68.503C60.3093 68.441 60.2153 68.417 60.1733 68.504C60.0963 68.531 60.0733 68.604 60.1003 68.673C59.3013 70.415 59.1663 72.485 58.1943 74.138C58.1023 74.298 58.1973 74.466 58.3533 74.526ZM58.9573 73.744C58.8533 73.399 58.8943 73.07 59.0813 72.757C59.3883 71.396 60.0603 70.139 60.3343 68.766C61.4183 68.633 62.3353 69.034 63.1683 69.678C64.4233 70.648 64.1573 71.15 63.4433 72.262C63.1743 72.68 62.9123 73.102 62.6483 73.523C62.4553 73.83 61.9033 75.103 61.5793 75.217C61.3463 75.299 59.7493 74.569 59.5243 74.412C59.0523 74.406 58.8643 74.184 58.9573 73.744Z" fill="#94792F"></path><path d="M62.5163 76.087C62.5933 76.442 63.0883 76.825 63.3063 77.087C63.7313 77.597 64.1533 78.294 64.6643 78.715C65.0193 79.007 65.1423 79.123 65.6403 78.979C66.6113 78.699 67.6653 77.562 68.4773 76.961C68.8773 76.665 69.8813 76.179 69.8513 75.527C69.8233 74.919 68.9483 74.226 68.5863 73.862C67.7843 73.055 66.9453 72.244 66.0263 71.571C66.0243 71.569 66.0213 71.571 66.0193 71.569C66.0773 71.332 65.7333 71.158 65.5653 71.392C64.7553 72.523 63.9613 73.665 63.1663 74.808C62.9083 75.18 62.4113 75.602 62.5163 76.087ZM63.6583 75.096C64.2733 73.94 65.1733 72.867 65.9143 71.777C66.4413 72.263 66.9943 72.718 67.4913 73.236C67.9303 73.693 68.8193 74.489 68.9873 75.077C69.2433 75.97 66.7243 77.708 65.8663 78.115C64.9463 78.551 64.6153 77.737 64.0593 77.078C63.4393 76.342 63.1793 75.996 63.6583 75.096Z" fill="#94792F"></path><path d="M66.6825 82.241C66.9565 82.888 67.0855 83.388 67.8155 83.458C68.7805 83.551 70.1425 83.335 71.0785 83.06C71.6795 82.884 72.0235 82.661 72.1525 82.022C72.3305 81.14 72.0945 80.063 71.9365 79.185C71.7945 78.398 71.6955 77.521 71.1495 76.907C71.1015 76.853 71.0465 76.841 70.9925 76.835C70.9315 76.795 70.8585 76.775 70.7755 76.823C69.5725 77.519 68.3615 78.202 67.1755 78.927C66.7325 79.197 66.2075 79.483 66.0915 80.035C65.9455 80.725 66.4255 81.631 66.6825 82.241ZM66.6445 80.61C66.5925 79.721 67.0375 79.624 67.6475 79.251C68.6965 78.611 69.7505 77.979 70.8005 77.338C71.2745 77.922 71.3685 79.045 71.4485 79.731C71.5095 80.254 71.6995 81.123 71.5425 81.633C71.1605 82.872 68.0555 83.375 67.2785 82.377C67.0385 82.07 66.6695 81.037 66.6445 80.61Z" fill="#94792F"></path><path d="M48.1011 72.0898C48.5131 73.0498 49.1422 74.9069 50.1602 75.4199C51.0652 75.8769 52.0792 74.7329 52.7582 74.2779C52.8312 74.2289 52.9022 74.1409 52.8912 74.0449C52.6582 72.0179 52.2541 70.0348 51.6651 68.0808C51.5831 67.8098 51.2432 67.8329 51.1292 68.0139C50.1952 68.1999 48.1322 68.4548 47.5302 69.3528C46.9972 70.1498 47.7831 71.3478 48.1011 72.0898ZM49.3431 69.0229C49.9471 68.8149 50.5661 68.6738 51.1921 68.5498C51.5461 69.7288 51.8522 70.9188 52.0702 72.1318C52.1572 72.6128 52.4242 73.5918 52.1302 74.0508C51.7882 74.5858 50.7222 74.9018 50.2062 74.5678C49.7922 74.2998 49.3942 73.3299 49.1472 72.9029C48.9012 72.4769 48.6632 72.0438 48.4582 71.5968C47.8732 70.3168 47.8051 69.5519 49.3431 69.0229Z" fill="#94792F"></path><path d="M42.7444 74.5998C42.7604 75.3248 43.5914 75.6958 44.0984 76.0648C45.0724 76.7728 46.0544 77.4698 47.0364 78.1658C47.1524 78.2478 47.3774 78.2238 47.4664 78.1108C48.0884 77.3088 48.8454 76.6308 49.4594 75.8298C49.5224 75.7478 49.4984 75.6638 49.4464 75.5978C49.5434 75.5278 49.5984 75.4078 49.5454 75.2548C49.2524 74.4128 48.6834 73.8188 48.1054 73.1548C47.4454 72.3958 46.8074 71.3968 45.9784 70.8238C45.8714 70.7498 45.7184 70.7638 45.6104 70.8238C44.8564 71.2448 44.3074 72.1028 43.7864 72.7788C43.4104 73.2658 42.7284 73.9258 42.7444 74.5998ZM44.8444 72.6538C45.1734 72.2538 45.4404 71.6668 46.0724 71.9108C46.5084 72.0798 47.1184 73.0998 47.4354 73.4588C47.9784 74.0758 48.5884 74.6498 48.8844 75.4358C48.9144 75.5158 48.9674 75.5688 49.0274 75.6058C48.3714 76.0688 47.6104 77.2448 46.9794 77.2448C46.6814 77.2448 46.0154 76.5288 45.7334 76.3218C45.2534 75.9698 44.4194 75.5798 44.0604 75.1108C43.2684 74.0738 44.2034 73.4328 44.8444 72.6538Z" fill="#94792F"></path><path d="M40.0664 80.926C40.0594 82.079 40.9194 82.225 41.9004 82.399C42.7714 82.554 43.4534 82.795 44.2904 83.062C44.6554 83.178 44.7794 83.273 45.0834 82.999C45.4124 82.702 45.4424 82.048 45.5524 81.648C45.7934 80.767 46.1135 79.919 46.3255 79.03C46.3635 78.873 46.1704 78.791 46.0724 78.903C46.0634 78.896 46.0594 78.887 46.0484 78.881C44.7034 78.013 43.2704 77.268 41.8624 76.509C41.7034 76.423 41.4614 76.459 41.3754 76.637C40.7314 77.961 40.0764 79.417 40.0664 80.926ZM40.9375 80.172C41.0995 79.194 41.4015 78.209 41.8385 77.313C43.1235 78.037 44.3934 78.796 45.7044 79.47C45.7154 79.476 45.7264 79.475 45.7374 79.48C45.3744 80.184 45.1284 80.927 44.9174 81.709C44.8564 81.929 44.8014 82.15 44.7534 82.374C44.5924 82.588 44.4175 82.57 44.2305 82.319C43.9025 82.243 43.5784 82.05 43.2424 81.966C42.7954 81.854 42.3384 81.797 41.8884 81.703C40.9414 81.507 40.7675 81.194 40.9375 80.172Z" fill="#94792F"></path><path d="M156.506 83.2589C155.824 79.0019 151.942 75.7259 147.256 75.7259C142.571 75.7259 138.688 79.0029 138.006 83.2589H137.059C137.749 78.5119 142.052 74.8389 147.255 74.8389C152.458 74.8389 156.762 78.5109 157.451 83.2589H156.506Z" fill="#94792F"></path><path d="M137.059 82.8159H157.452V125.358H137.059V82.8159ZM156.525 83.7019H137.986V124.471H156.525V83.7019Z" fill="#94792F"></path><path d="M137.731 111.585C137.878 111.605 138.027 111.617 138.175 111.634C138.152 115.718 138.185 119.804 138.363 123.874C138.22 123.953 138.225 124.15 138.376 124.22C138.377 124.238 138.377 124.257 138.378 124.276C138.387 124.467 138.666 124.467 138.675 124.276C138.675 124.272 138.675 124.268 138.676 124.263C141.467 124.422 144.291 124.326 147.086 124.311C147.09 124.328 147.092 124.346 147.095 124.363C147.169 124.674 147.65 124.673 147.724 124.363C147.728 124.347 147.729 124.329 147.733 124.313C150.432 124.318 153.192 124.428 155.87 124.168C155.988 124.34 156.296 124.307 156.307 124.044C156.469 119.905 156.439 115.747 156.392 111.592C156.516 111.572 156.642 111.558 156.765 111.536C157.076 111.478 157.076 110.965 156.765 110.908C156.639 110.885 156.51 110.871 156.384 110.85C156.357 108.538 156.33 106.227 156.328 103.922C156.326 101.355 156.38 98.7662 156.417 96.1732C156.553 96.1492 156.692 96.1332 156.826 96.1052C157.078 96.0522 157.078 95.6482 156.826 95.5952C156.694 95.5672 156.558 95.5522 156.424 95.5282C156.473 91.7252 156.467 87.9172 156.182 84.1612C156.223 84.1102 156.247 84.0442 156.235 83.9652C155.704 80.2052 152.321 76.0532 148.174 76.2462C148.112 76.2492 148.101 76.3342 148.16 76.3532C150.096 76.9692 151.838 77.4042 153.325 78.9112C154.694 80.2982 155.487 82.1912 155.767 84.0942C155.783 84.2022 155.854 84.2412 155.933 84.2522C155.657 87.9402 155.648 91.6762 155.695 95.4102C153.152 95.0902 150.417 95.3622 147.886 95.3692C147.886 92.8742 147.883 90.3802 147.883 87.8852C147.883 86.8482 147.905 85.7992 147.93 84.7432C150.502 84.8682 153.163 84.8132 155.673 84.6142C155.827 84.6022 155.827 84.3872 155.673 84.3752C153.166 84.1772 150.509 84.1212 147.942 84.2462C148.017 81.2002 148.097 78.1132 147.738 75.1482C147.687 74.7242 147.13 74.7252 147.079 75.1482C146.717 78.1362 146.801 81.2462 146.876 84.3132C146.591 84.3332 146.299 84.3422 146.018 84.3672C145.855 84.3822 145.855 84.6062 146.018 84.6202C146.302 84.6452 146.597 84.6552 146.885 84.6752C146.911 85.7532 146.934 86.8252 146.934 87.8832C146.933 90.3762 146.931 92.8692 146.931 95.3612C144.217 95.3302 141.442 95.1982 138.741 95.4062C138.739 91.5872 138.742 87.7692 138.663 83.9522C138.659 83.7752 138.392 83.7752 138.388 83.9522C138.309 87.7792 138.311 91.6082 138.308 95.4362C138.175 95.4482 138.04 95.4492 137.908 95.4642C137.414 95.5172 137.415 96.1792 137.908 96.2322C138.04 96.2462 138.175 96.2472 138.307 96.2592C138.304 98.8772 138.298 101.496 138.257 104.113C138.222 106.341 138.196 108.573 138.179 110.807C138.03 110.824 137.879 110.836 137.73 110.857C137.371 110.907 137.372 111.536 137.731 111.585ZM138.878 112.465C138.877 112.214 138.882 111.962 138.881 111.71C141.514 111.935 144.238 111.759 146.873 111.745C146.872 111.887 146.872 112.03 146.871 112.172C144.177 112.188 141.491 112.29 138.878 112.465ZM146.931 96.3362C146.931 96.4052 146.931 96.4752 146.931 96.5442C144.283 96.5902 141.639 96.7052 139.067 96.8442C138.955 96.8502 138.955 97.0122 139.067 97.0182C141.639 97.1572 144.283 97.2722 146.93 97.3182C146.93 98.2672 146.932 99.2172 146.929 100.167C146.917 103.677 146.896 107.187 146.877 110.698C144.241 110.684 141.51 110.508 138.874 110.733C138.857 108.525 138.831 106.317 138.794 104.115C138.751 101.508 138.745 98.9002 138.742 96.2912C141.443 96.4992 144.218 96.3682 146.931 96.3362ZM155.722 112.458C153.182 112.272 150.57 112.184 147.949 112.176C147.948 112.035 147.948 111.893 147.947 111.752C150.499 111.792 153.193 112 155.729 111.693C155.726 111.948 155.725 112.203 155.722 112.458ZM155.713 96.7332C153.151 96.5542 150.522 96.5032 147.888 96.5302C147.888 96.4642 147.888 96.3972 147.888 96.3312C150.424 96.3382 153.159 96.6122 155.706 96.2902C155.709 96.4372 155.711 96.5852 155.713 96.7332ZM155.794 103.922C155.793 106.195 155.766 108.473 155.739 110.752C153.197 110.442 150.503 110.651 147.942 110.691C147.923 107.183 147.902 103.675 147.89 100.167C147.887 99.2222 147.888 98.2772 147.889 97.3322C150.525 97.3602 153.156 97.3082 155.72 97.1292C155.754 99.4022 155.795 101.671 155.794 103.922ZM147.832 123.775C148.482 120.395 148.029 116.504 147.962 113.047C150.578 113.039 153.183 112.95 155.719 112.765C155.682 116.487 155.669 120.209 155.811 123.916C153.185 123.667 150.48 123.768 147.832 123.775ZM138.692 123.824C138.852 120.145 138.887 116.451 138.877 112.758C141.486 112.933 144.168 113.035 146.857 113.05C146.79 116.503 146.339 120.402 146.988 123.776C144.229 123.76 141.445 123.668 138.692 123.824Z" fill="#94792F"></path><path d="M145.696 76.264C145.794 76.251 145.841 76.393 145.738 76.418C144.218 76.78 142.723 77.508 141.626 78.639C140.537 79.76 140.163 81.08 139.546 82.464C139.501 82.566 139.342 82.511 139.344 82.409C139.382 79.328 142.906 76.647 145.696 76.264Z" fill="#94792F"></path><path d="M143.376 68.0772C143.939 70.1312 144.407 72.2052 144.992 74.2542C145.039 74.4212 145.206 74.5042 145.369 74.4682C146.58 74.2052 147.744 74.1362 148.972 74.2722C149.086 74.2852 149.209 74.1782 149.234 74.0732C149.65 72.3392 150.278 70.4652 150.291 68.6692C150.318 68.5922 150.288 68.5192 150.235 68.4632C150.48 68.3762 150.545 67.9742 150.228 67.8902C148.052 67.3102 145.784 67.4222 143.572 67.7342C143.421 67.7542 143.34 67.9452 143.376 68.0772ZM143.993 68.2572C145.992 68.1132 147.925 67.9482 149.898 68.4492C149.878 68.4732 149.859 68.5002 149.846 68.5382C149.305 70.1882 149.163 72.0082 148.756 73.7102C147.656 73.5852 146.592 73.6142 145.505 73.8232C144.968 71.9792 144.414 70.1322 143.993 68.2572Z" fill="#94792F"></path><path d="M149.597 74.526C150.111 74.725 150.624 74.928 151.14 75.124C151.485 75.256 152.321 75.704 152.688 75.703C152.887 75.702 152.956 75.746 153.124 75.663C153.604 75.426 153.986 74.444 154.25 74.019C154.687 73.317 155.141 72.622 155.549 71.902C156.063 70.995 156.059 70.646 155.271 70.063C154.166 69.246 152.985 68.568 151.597 68.503C151.553 68.441 151.459 68.417 151.417 68.504C151.34 68.531 151.317 68.604 151.344 68.673C150.545 70.415 150.41 72.485 149.438 74.138C149.346 74.298 149.441 74.466 149.597 74.526ZM150.201 73.744C150.097 73.399 150.138 73.07 150.325 72.757C150.632 71.396 151.304 70.139 151.578 68.766C152.662 68.633 153.579 69.034 154.412 69.678C155.667 70.648 155.401 71.15 154.687 72.262C154.418 72.68 154.156 73.102 153.892 73.523C153.699 73.83 153.147 75.103 152.823 75.217C152.59 75.299 150.993 74.569 150.768 74.412C150.297 74.406 150.108 74.184 150.201 73.744Z" fill="#94792F"></path><path d="M153.761 76.087C153.838 76.442 154.333 76.825 154.551 77.087C154.976 77.597 155.398 78.294 155.909 78.715C156.264 79.007 156.387 79.123 156.885 78.979C157.855 78.699 158.91 77.562 159.722 76.961C160.122 76.665 161.126 76.179 161.096 75.527C161.068 74.919 160.193 74.226 159.831 73.862C159.029 73.055 158.191 72.244 157.271 71.571C157.269 71.569 157.266 71.571 157.264 71.569C157.322 71.332 156.978 71.158 156.81 71.392C156 72.523 155.206 73.665 154.411 74.808C154.152 75.18 153.655 75.602 153.761 76.087ZM154.903 75.096C155.518 73.94 156.418 72.867 157.159 71.777C157.686 72.263 158.239 72.718 158.737 73.236C159.176 73.693 160.065 74.489 160.233 75.077C160.489 75.97 157.97 77.708 157.112 78.115C156.192 78.551 155.861 77.737 155.305 77.078C154.683 76.342 154.423 75.996 154.903 75.096Z" fill="#94792F"></path><path d="M157.927 82.241C158.201 82.888 158.33 83.388 159.06 83.458C160.025 83.551 161.387 83.335 162.323 83.06C162.924 82.884 163.268 82.661 163.397 82.022C163.575 81.14 163.339 80.063 163.181 79.185C163.039 78.398 162.94 77.521 162.394 76.907C162.346 76.853 162.291 76.841 162.237 76.835C162.176 76.795 162.103 76.775 162.02 76.823C160.817 77.519 159.606 78.202 158.42 78.927C157.977 79.197 157.452 79.483 157.336 80.035C157.189 80.725 157.669 81.631 157.927 82.241ZM157.888 80.61C157.837 79.721 158.281 79.624 158.891 79.251C159.94 78.611 160.994 77.979 162.044 77.338C162.518 77.922 162.612 79.045 162.692 79.731C162.753 80.254 162.943 81.123 162.786 81.633C162.404 82.872 159.299 83.375 158.522 82.377C158.282 82.07 157.913 81.037 157.888 80.61Z" fill="#94792F"></path><path d="M139.345 72.0898C139.757 73.0498 140.386 74.9069 141.404 75.4199C142.309 75.8769 143.323 74.7329 144.002 74.2779C144.075 74.2289 144.146 74.1409 144.135 74.0449C143.902 72.0179 143.498 70.0348 142.909 68.0808C142.827 67.8098 142.487 67.8329 142.373 68.0139C141.439 68.1999 139.376 68.4548 138.774 69.3528C138.241 70.1498 139.027 71.3478 139.345 72.0898ZM140.587 69.0229C141.191 68.8149 141.81 68.6738 142.436 68.5498C142.79 69.7288 143.096 70.9188 143.314 72.1318C143.401 72.6128 143.667 73.5918 143.374 74.0508C143.032 74.5858 141.966 74.9018 141.45 74.5678C141.035 74.2998 140.638 73.3299 140.391 72.9029C140.145 72.4769 139.907 72.0438 139.702 71.5968C139.117 70.3168 139.049 69.5519 140.587 69.0229Z" fill="#94792F"></path><path d="M133.989 74.5998C134.005 75.3248 134.836 75.6958 135.343 76.0648C136.317 76.7728 137.299 77.4698 138.281 78.1658C138.397 78.2478 138.622 78.2238 138.711 78.1108C139.333 77.3088 140.09 76.6308 140.704 75.8298C140.767 75.7478 140.743 75.6638 140.691 75.5978C140.788 75.5278 140.843 75.4078 140.79 75.2548C140.497 74.4128 139.928 73.8188 139.35 73.1548C138.69 72.3958 138.052 71.3968 137.223 70.8238C137.116 70.7498 136.963 70.7638 136.855 70.8238C136.101 71.2448 135.551 72.1028 135.031 72.7788C134.655 73.2658 133.973 73.9258 133.989 74.5998ZM136.089 72.6538C136.418 72.2538 136.685 71.6668 137.317 71.9108C137.753 72.0798 138.363 73.0998 138.68 73.4588C139.223 74.0758 139.833 74.6498 140.129 75.4358C140.159 75.5158 140.212 75.5688 140.272 75.6058C139.616 76.0688 138.855 77.2448 138.224 77.2448C137.926 77.2448 137.26 76.5288 136.978 76.3218C136.498 75.9698 135.664 75.5798 135.305 75.1108C134.513 74.0738 135.448 73.4328 136.089 72.6538Z" fill="#94792F"></path><path d="M131.311 80.926C131.304 82.079 132.164 82.225 133.145 82.399C134.016 82.554 134.698 82.795 135.535 83.062C135.9 83.178 136.024 83.273 136.328 82.999C136.657 82.702 136.687 82.048 136.797 81.648C137.038 80.767 137.358 79.919 137.57 79.03C137.607 78.873 137.415 78.791 137.317 78.903C137.308 78.896 137.304 78.887 137.293 78.881C135.948 78.013 134.515 77.268 133.107 76.509C132.948 76.423 132.706 76.459 132.62 76.637C131.976 77.961 131.321 79.417 131.311 80.926ZM132.182 80.172C132.344 79.194 132.646 78.209 133.082 77.313C134.366 78.037 135.637 78.796 136.948 79.47C136.959 79.476 136.97 79.475 136.981 79.48C136.618 80.184 136.372 80.927 136.161 81.709C136.1 81.929 136.045 82.15 135.997 82.374C135.836 82.588 135.661 82.57 135.474 82.319C135.146 82.243 134.822 82.05 134.486 81.966C134.039 81.854 133.582 81.797 133.132 81.703C132.186 81.507 132.013 81.194 132.182 80.172Z" fill="#94792F"></path><path d="M178.024 55.1951C177.895 55.0441 177.701 54.9441 177.442 54.9441C153.211 54.9431 128.979 54.9421 104.748 54.9411C88.6329 54.9411 72.4459 54.6041 56.2879 54.6961C46.4689 54.6981 36.6549 54.8061 26.8639 55.1691C26.1219 55.1961 26.1199 56.2961 26.8639 56.3231C36.6579 56.6861 46.4739 56.7951 56.2959 56.7961C72.4509 56.8871 88.6349 56.5511 104.748 56.5501C128.979 56.5491 153.211 56.5481 177.442 56.5471C177.571 56.5471 177.684 56.5221 177.781 56.4781C178.071 56.3461 178.217 56.0451 178.217 55.7451C178.217 55.5461 178.153 55.3451 178.024 55.1951Z" fill="#94792F"></path><path d="M62.5701 19.423C62.3681 19.656 62.1771 19.898 61.9811 20.135C61.9391 20.09 61.8241 20.092 61.5971 20.172C60.7881 20.455 59.9361 21.652 59.3401 22.22C57.7251 23.761 56.1451 25.34 54.5561 26.908C51.3771 30.044 48.2151 33.196 45.0481 36.345C38.7171 42.64 32.2891 48.858 26.2351 55.422C25.8351 55.856 26.4491 56.47 26.8831 56.07C33.2981 50.153 39.3791 43.876 45.5311 37.689C51.3381 31.848 57.8901 26.225 62.9181 19.69C63.0681 19.493 62.7311 19.232 62.5701 19.423Z" fill="#94792F"></path><path d="M177.611 55.423C171.557 48.859 165.129 42.64 158.798 36.346C155.631 33.197 152.469 30.045 149.29 26.909C147.7 25.341 146.121 23.762 144.506 22.221C143.91 21.652 143.057 20.456 142.249 20.173C142.056 20.105 141.956 20.102 141.901 20.128C141.88 20.099 141.842 20.088 141.809 20.07C141.632 19.854 141.458 19.636 141.275 19.425C141.113 19.234 140.777 19.495 140.928 19.692C140.995 19.779 141.069 19.863 141.137 19.95C135.158 19.136 128.886 19.62 122.865 19.62C115.998 19.619 109.13 19.619 102.263 19.618C95.5981 19.617 88.9321 19.612 82.2671 19.616C75.4551 19.62 68.447 19.189 61.665 19.845C61.034 19.906 61.033 20.766 61.665 20.828C68.248 21.465 75.048 21.049 81.661 21.056C88.528 21.063 95.3961 21.055 102.263 21.055C108.928 21.054 115.594 21.054 122.259 21.053C128.667 21.052 135.364 21.61 141.706 20.653C146.622 26.779 152.797 32.142 158.315 37.692C164.467 43.879 170.548 50.156 176.963 56.073C177.398 56.471 178.012 55.857 177.611 55.423Z" fill="#94792F"></path><path d="M30.6927 116.498C30.6877 126.045 30.6827 135.591 30.6777 145.138C31.1947 145.184 31.7067 145.275 32.2087 145.405C32.2047 135.769 32.1987 126.133 32.1937 116.498C32.1887 106.372 32.1577 96.2469 32.1207 86.1209C32.0827 75.8139 32.4587 65.4279 31.8527 55.1359C31.8217 54.6089 31.0637 54.6079 31.0327 55.1359C30.4387 65.2259 30.8027 75.4069 30.7667 85.5129C30.7307 95.8419 30.6977 106.17 30.6927 116.498Z" fill="#94792F"></path><path d="M174.444 114.239C174.45 103.961 174.454 93.6832 174.456 83.4052C174.458 73.7832 174.463 64.1622 174.457 54.5412C173.867 54.5352 173.274 54.5122 172.682 54.4712C172.676 64.1162 172.681 73.7602 172.683 83.4052C172.685 93.4812 172.689 103.558 172.695 113.634C172.698 118.874 172.702 124.114 172.704 129.353C172.707 134.132 172.423 139.036 172.796 143.815C161.314 142.889 149.516 143.584 138.004 143.584H102.744C90.9907 143.584 79.2367 143.598 67.4837 143.606C55.8287 143.614 43.8337 142.844 32.2237 143.904C31.5067 143.969 31.5057 144.955 32.2237 145.02C43.8357 146.08 55.8277 145.31 67.4837 145.318C79.2367 145.326 90.9907 145.34 102.744 145.34H138.004C149.553 145.34 161.393 146.041 172.91 145.102C173.025 145.927 174.149 145.922 174.238 145.073C174.778 139.899 174.432 134.553 174.435 129.354C174.438 124.315 174.441 119.277 174.444 114.239Z" fill="#94792F"></path><path d="M213.236 143.941C199.572 143.193 185.764 143.697 172.081 143.678C158.362 143.659 144.644 143.656 130.926 143.658L48.6161 143.671C33.0861 143.674 17.5551 143.651 2.02509 143.685C0.779094 143.688 0.777094 145.624 2.02509 145.621C56.8971 145.742 111.773 145.71 166.645 145.636C182.132 145.615 197.771 146.213 213.236 145.366C214.153 145.317 214.155 143.992 213.236 143.941Z" fill="#94792F"></path><path d="M116.314 105.824C116.284 96.0122 116.664 86.0882 115.881 76.3112H115.884C116.415 76.2412 116.417 75.5522 115.884 75.4822C110.529 74.7802 104.842 75.4322 99.4421 75.4572C94.6371 75.4792 89.5151 74.9122 84.7641 75.7462C84.6151 75.4942 84.2191 75.5422 84.1711 75.8972C83.4961 80.9362 83.8851 86.2152 83.8831 91.2942C83.8821 96.1702 83.8801 101.046 83.8791 105.921C83.8761 115.85 83.2071 126.051 84.0191 135.946C84.0691 136.557 84.9191 136.558 84.9701 135.946C85.7821 126.05 85.1131 115.851 85.1101 105.921C85.1091 101.045 85.1071 96.1692 85.1061 91.2942C85.1051 86.2732 85.4811 81.0432 84.8361 76.0582C89.5681 76.8752 94.6601 76.3192 99.4431 76.3362C104.58 76.3552 109.98 76.9362 115.103 76.3892C114.328 86.1412 114.706 96.0372 114.675 105.823C114.645 115.608 113.836 125.822 114.837 135.555C114.924 136.4 116.066 136.402 116.153 135.555C117.154 125.821 116.345 115.611 116.314 105.824Z" fill="#94792F"></path><path d="M86.8509 108.19C86.8499 112.611 86.7299 117.09 86.6719 121.568C87.1219 121.539 87.5699 121.519 88.0169 121.512C87.9589 117.053 87.8399 112.593 87.8389 108.19C87.8379 103.628 87.8369 99.066 87.8349 94.504C87.8339 89.806 88.1359 84.913 87.6179 80.248C91.4169 81.012 95.5029 80.492 99.3429 80.508C103.466 80.526 107.801 81.07 111.913 80.558C111.291 89.683 111.594 98.942 111.569 108.099C111.558 112.373 111.413 116.734 111.341 121.096C111.928 120.971 112.522 120.94 113.112 120.986C113.039 116.661 112.897 112.338 112.886 108.099C112.861 98.918 113.167 89.633 112.538 80.485H112.541C112.968 80.42 112.968 79.775 112.541 79.71C108.243 79.053 103.678 79.663 99.3429 79.686C95.4859 79.706 91.3749 79.176 87.5619 79.956C87.4429 79.72 87.1239 79.765 87.0859 80.097C86.5439 84.811 86.8559 89.751 86.8549 94.504C86.8529 99.066 86.8519 103.628 86.8509 108.19Z" fill="#94792F"></path><path d="M122.123 142.605C121.983 142.601 121.843 142.602 121.703 142.599C122.112 141.686 121.939 140.635 121.922 139.65C121.906 138.724 121.916 137.796 121.592 136.929C122.087 136.581 121.963 135.61 121.194 135.61C110.812 135.61 100.217 135.195 89.7497 135.474C86.0897 135.437 82.4327 135.479 78.8407 135.823C78.5737 135.849 78.4207 136.013 78.3707 136.203C78.0647 136.144 77.7117 136.312 77.6957 136.725C77.6197 138.672 77.4277 140.785 77.8197 142.707C77.2287 142.78 76.6387 142.86 76.0567 142.959C75.8587 142.992 75.8587 143.325 76.0567 143.358C83.2127 144.573 91.0997 143.7 98.3507 143.704C106.266 143.708 114.213 143.92 122.124 143.712C122.836 143.695 122.838 142.624 122.123 142.605ZM98.3497 142.614C91.9857 142.618 85.1327 141.947 78.7127 142.603C79.0707 140.746 78.8987 138.722 78.8207 136.842C78.8277 136.843 78.8327 136.847 78.8397 136.847C82.4317 137.192 86.0897 137.233 89.7487 137.196C100.037 137.47 110.448 137.076 120.659 137.062C120.384 137.89 120.389 138.77 120.373 139.649C120.356 140.629 120.185 141.673 120.585 142.582C113.183 142.437 105.753 142.61 98.3497 142.614Z" fill="#94792F"></path><path d="M112.109 121.261C108.096 120.625 103.857 120.977 99.7994 120.979C95.7854 120.981 91.4565 120.497 87.5415 121.449C87.2805 121.513 87.2805 121.914 87.5415 121.978C91.4475 122.927 95.7974 122.446 99.7994 122.448C103.864 122.45 108.09 122.803 112.109 122.166C112.556 122.095 112.557 121.332 112.109 121.261Z" fill="#94792F"></path><path d="M67.4367 8.32502C67.4377 8.01002 67.1937 7.85301 66.9487 7.85401C66.7037 7.85301 66.4597 8.01002 66.4607 8.32502C66.4507 11.121 66.1797 14.125 66.3567 16.991C66.3857 17.985 66.4477 18.971 66.5647 19.941C66.6237 20.433 67.2727 20.434 67.3327 19.941C67.4497 18.97 67.5117 17.983 67.5407 16.988C67.7177 14.124 67.4467 11.119 67.4367 8.32502Z" fill="#94792F"></path><path d="M80.5254 5.27397C80.5344 3.92097 80.7684 2.37598 80.3204 1.08498C80.2014 0.742976 79.8504 0.641988 79.5854 0.771988C76.8584 0.311988 73.9934 0.558 71.2364 0.584C68.4094 0.611 65.3384 0.236991 62.6274 1.11299C62.5174 1.14799 62.5174 1.30098 62.6274 1.33598C62.6444 1.34098 62.6624 1.34499 62.6794 1.34999C62.6694 1.37399 62.6494 1.389 62.6484 1.42C62.6384 2.311 62.5684 3.23999 62.7174 4.12199C62.7224 4.15499 62.7414 4.17799 62.7644 4.19499C62.7514 4.78599 62.7724 5.37997 62.7794 5.96397C62.7894 6.81197 62.5694 7.98898 63.3034 8.57198C63.3904 8.64098 63.4824 8.64198 63.5704 8.57198C63.6234 8.52998 63.6604 8.47898 63.7044 8.43098C65.4144 8.92598 67.2434 8.92598 69.0484 8.89598C69.0314 9.97598 69.0354 11.064 69.1104 12.14C68.3564 12.177 67.6074 12.223 66.8814 12.288C66.6504 12.309 66.6504 12.627 66.8814 12.647C69.4284 12.875 72.1904 12.93 74.8464 12.818C74.5604 14.401 74.7334 16.216 74.8264 17.813C73.8384 17.815 72.8504 17.83 71.8644 17.83C70.2294 17.83 68.5334 17.675 66.9224 17.97C66.8384 17.985 66.8384 18.125 66.9224 18.14C68.5334 18.436 70.2294 18.28 71.8644 18.28C73.6664 18.28 75.4774 18.336 77.2784 18.258C77.2834 18.802 77.2924 19.349 77.2924 19.889C77.2924 20.625 78.4344 20.626 78.4354 19.889C78.4374 17.129 78.5424 14.306 78.4414 11.519C78.4484 10.683 78.4214 9.84798 78.2824 9.03798C78.2784 8.99498 78.2744 8.95198 78.2714 8.90898L79.6184 8.91597C80.1544 8.91897 80.3584 8.40298 80.2334 8.00798C80.6474 7.20098 80.5204 6.18097 80.5254 5.27397ZM75.2484 17.815C75.3124 16.21 75.4514 14.382 75.1314 12.801C75.8514 12.767 76.5694 12.728 77.2654 12.67C77.2344 14.399 77.2584 16.13 77.2764 17.853C76.6024 17.824 75.9254 17.816 75.2484 17.815ZM77.4454 9.04997C77.3104 9.84797 77.2824 10.676 77.2884 11.502C77.2794 11.756 77.2794 12.01 77.2734 12.265C74.7694 12.053 72.0634 12.004 69.4644 12.117C69.4494 11.042 69.3634 9.96298 69.2574 8.89198C69.8464 8.88198 70.4334 8.86997 71.0114 8.87297C73.1604 8.88397 75.3094 8.896 77.4574 8.907C77.4544 8.955 77.4504 9.00297 77.4454 9.04997ZM71.0124 7.61198C68.6784 7.62398 66.2454 7.40098 63.9774 7.98598C64.2014 7.37398 64.0894 6.578 64.0974 5.963C64.1114 4.815 64.2054 3.63098 63.9304 2.50798C63.9554 2.28198 63.9804 2.05499 64.0144 1.82899C64.0244 1.76299 64.0114 1.70698 63.9904 1.65498C66.3424 2.08298 68.8734 1.842 71.2384 1.864C73.8474 1.889 76.5534 2.10998 79.1464 1.74498C78.9404 2.88298 79.0994 4.14699 79.1064 5.27299C79.1114 6.02299 79.0284 6.84698 79.2284 7.56798C76.4894 7.58298 73.7504 7.59798 71.0124 7.61198Z" fill="#94792F"></path><path d="M124.366 8.63117C124.367 8.31617 124.123 8.15916 123.878 8.16016C123.633 8.15916 123.389 8.31617 123.39 8.63117C123.38 11.4272 123.109 14.4311 123.286 17.2961C123.315 18.2901 123.377 19.2762 123.494 20.2462C123.553 20.7392 124.202 20.7392 124.262 20.2462C124.379 19.2752 124.441 18.2882 124.47 17.2932C124.647 14.4302 124.377 11.4252 124.366 8.63117Z" fill="#94792F"></path><path d="M137.455 5.57918C137.464 4.22618 137.698 2.68118 137.25 1.39018C137.131 1.04818 136.78 0.947164 136.515 1.07716C133.788 0.617164 130.923 0.863176 128.166 0.889176C125.339 0.916176 122.268 0.542167 119.557 1.41817C119.447 1.45317 119.447 1.60616 119.557 1.64116C119.574 1.64716 119.592 1.65017 119.609 1.65517C119.599 1.67917 119.579 1.69417 119.579 1.72417C119.569 2.61517 119.499 3.54416 119.648 4.42616C119.654 4.45816 119.672 4.48216 119.695 4.49916C119.682 5.09016 119.703 5.68417 119.71 6.26817C119.72 7.11617 119.5 8.29317 120.234 8.87617C120.321 8.94517 120.413 8.94617 120.501 8.87617C120.553 8.83417 120.591 8.78315 120.635 8.73515C122.345 9.23015 124.174 9.23018 125.979 9.20018C125.962 10.2802 125.966 11.3682 126.041 12.4442C125.287 12.4812 124.538 12.5262 123.812 12.5922C123.581 12.6132 123.581 12.9312 123.812 12.9512C126.359 13.1792 129.121 13.2342 131.777 13.1232C131.49 14.7062 131.664 16.5212 131.757 18.1182C130.769 18.1202 129.781 18.1352 128.795 18.1352C127.16 18.1352 125.464 17.9802 123.853 18.2752C123.769 18.2902 123.769 18.4302 123.853 18.4452C125.464 18.7412 127.16 18.5852 128.795 18.5852C130.597 18.5852 132.408 18.6412 134.209 18.5632C134.214 19.1072 134.223 19.6542 134.223 20.1942C134.222 20.9302 135.365 20.9312 135.366 20.1942C135.368 17.4342 135.473 14.6112 135.372 11.8252C135.379 10.9892 135.352 10.1542 135.214 9.34416C135.21 9.30116 135.206 9.25817 135.202 9.21617L136.549 9.22316C137.086 9.22616 137.289 8.71016 137.164 8.31416C137.576 7.50716 137.449 6.48718 137.455 5.57918ZM132.177 18.1202C132.241 16.5152 132.38 14.6872 132.06 13.1062C132.78 13.0722 133.498 13.0332 134.194 12.9752C134.163 14.7042 134.187 16.4352 134.206 18.1582C133.531 18.1292 132.854 18.1222 132.177 18.1202ZM134.375 9.35616C134.24 10.1552 134.212 10.9822 134.218 11.8082C134.209 12.0622 134.209 12.3172 134.203 12.5712C131.699 12.3592 128.993 12.3102 126.394 12.4232C126.379 11.3482 126.293 10.2692 126.187 9.19817C126.777 9.18817 127.363 9.17615 127.941 9.17915C130.09 9.19015 132.239 9.20218 134.387 9.21318C134.383 9.26118 134.379 9.30916 134.375 9.35616ZM127.941 7.91817C125.607 7.93017 123.174 7.70717 120.906 8.29317C121.13 7.68017 121.018 6.88518 121.026 6.26918C121.04 5.12118 121.135 3.93717 120.859 2.81517C120.884 2.58917 120.909 2.36215 120.943 2.13615C120.953 2.07015 120.94 2.01417 120.919 1.96217C123.271 2.39017 125.802 2.14916 128.167 2.17116C130.776 2.19616 133.481 2.41717 136.075 2.05217C135.869 3.19017 136.028 4.45418 136.035 5.57918C136.04 6.32918 135.957 7.15316 136.157 7.87416C133.418 7.88916 130.68 7.90417 127.941 7.91817Z" fill="#94792F"></path><path d="M101.044 29.0419C101.031 26.3559 101.268 23.5289 100.823 20.8749C100.799 20.7299 100.554 20.7299 100.529 20.8749C100.105 23.4019 100.323 26.0969 100.31 28.6549C100.295 31.6219 100.299 34.5889 100.298 37.5549C100.295 43.3559 100.25 49.1739 100.533 54.9689C100.542 55.1529 100.81 55.1529 100.819 54.9689C101.102 49.1729 101.057 43.3559 101.054 37.5549C101.053 34.7179 101.058 31.8799 101.044 29.0419Z" fill="#94792F"></path><path d="M107.803 37.5791C107.105 32.0251 106.593 26.3961 105.605 20.8851C105.561 20.6401 105.151 20.6941 105.168 20.9441C105.578 26.7571 106.503 32.5701 107.217 38.3531C107.905 43.9281 108.519 49.5181 109.296 55.0811C109.35 55.4641 110.021 55.3781 109.978 54.9891C109.341 49.1771 108.532 43.3791 107.803 37.5791Z" fill="#94792F"></path><path d="M119.745 55.199C117.078 43.793 114.14 32.414 111.209 21.072C111.126 20.752 110.644 20.887 110.716 21.208C113.258 32.633 115.969 44.099 119.07 55.385C119.189 55.821 119.847 55.638 119.745 55.199Z" fill="#94792F"></path><path d="M128.379 55.4631C126.376 49.7151 124.467 43.9341 122.665 38.1201C120.869 32.3251 119.477 26.3321 117.445 20.6201C117.353 20.3611 116.982 20.4631 117.034 20.7331C118.172 26.6631 120.217 32.5411 122.002 38.3031C123.803 44.1181 125.713 49.8981 127.716 55.6461C127.86 56.0621 128.525 55.8831 128.379 55.4631Z" fill="#94792F"></path><path d="M136.755 54.672C134.573 48.937 132.219 43.263 129.937 37.567C127.743 32.089 125.663 26.541 123.267 21.147C123.154 20.893 122.723 21.074 122.816 21.337C124.819 26.993 127.168 32.54 129.379 38.117C131.594 43.702 133.744 49.32 136.055 54.865C136.231 55.285 136.923 55.114 136.755 54.672Z" fill="#94792F"></path><path d="M146.184 55.3292C144.22 51.4312 141.793 47.7372 139.727 43.8842C137.657 40.0242 135.685 36.1112 133.816 32.1502C132.934 30.2802 132.069 28.4012 131.224 26.5142C130.777 25.5152 130.336 24.5142 129.902 23.5092C129.604 22.8202 129.344 21.6862 128.831 21.1152C128.101 20.3022 127.106 21.0522 127.966 21.6742C128.043 21.7302 128.179 21.7082 128.241 21.6392C128.249 21.6302 128.258 21.6202 128.266 21.6112C128.992 23.2652 131.761 29.3232 131.997 29.8462C133.349 32.8412 134.773 35.8042 136.246 38.7402C139.095 44.4192 141.948 50.4602 145.622 55.6572C145.862 55.9982 146.375 55.7072 146.184 55.3292Z" fill="#94792F"></path><path d="M157.608 55.343C153.906 49.512 150.148 43.716 146.417 37.904L141.027 29.508C139.274 26.779 137.693 23.509 135.47 21.148C135.332 21.001 135.032 21.153 135.114 21.355C136.332 24.361 138.625 27.159 140.371 29.892L145.74 38.3C149.457 44.121 153.148 49.959 156.894 55.761C157.181 56.207 157.895 55.795 157.608 55.343Z" fill="#94792F"></path><path d="M166.237 56.0891C162.335 49.7221 157.925 43.6101 153.58 37.5401C149.37 31.6591 145.167 25.6461 140.416 20.1841C140.252 19.9951 139.922 20.2451 140.067 20.4541C144.255 26.4921 148.856 32.2531 153.118 38.2431C157.388 44.2441 161.361 50.4381 165.553 56.4891C165.839 56.9021 166.507 56.5301 166.237 56.0891Z" fill="#94792F"></path><path d="M94.256 37.5791C94.954 32.0251 95.467 26.3961 96.455 20.8851C96.499 20.6401 96.9091 20.6941 96.8921 20.9441C96.4821 26.7571 95.557 32.5701 94.843 38.3531C94.155 43.9281 93.5411 49.5181 92.7641 55.0811C92.7101 55.4641 92.0391 55.3781 92.0821 54.9891C92.7171 49.1771 93.527 43.3791 94.256 37.5791Z" fill="#94792F"></path><path d="M82.3154 55.199C84.9824 43.793 87.9204 32.414 90.8514 21.072C90.9344 20.752 91.4164 20.887 91.3444 21.208C88.8024 32.633 86.0914 44.099 82.9904 55.385C82.8714 55.821 82.2134 55.638 82.3154 55.199Z" fill="#94792F"></path><path d="M73.6812 55.4631C75.6842 49.7151 77.5932 43.9341 79.3952 38.1201C81.1912 32.3251 82.5832 26.3321 84.6152 20.6201C84.7072 20.3611 85.0782 20.4631 85.0262 20.7331C83.8882 26.6631 81.8432 32.5411 80.0582 38.3031C78.2572 44.1181 76.3472 49.8981 74.3442 55.6461C74.2002 56.0621 73.5342 55.8831 73.6812 55.4631Z" fill="#94792F"></path><path d="M65.3054 54.672C67.4874 48.937 69.8414 43.263 72.1234 37.567C74.3174 32.089 76.3974 26.541 78.7934 21.147C78.9064 20.893 79.3374 21.074 79.2444 21.337C77.2414 26.993 74.8924 32.54 72.6814 38.117C70.4664 43.702 68.3164 49.32 66.0054 54.865C65.8294 55.285 65.1374 55.114 65.3054 54.672Z" fill="#94792F"></path><path d="M55.8753 55.3292C57.8403 51.4312 60.2663 47.7372 62.3333 43.8842C64.4043 40.0242 66.3753 36.1112 68.2443 32.1502C69.1263 30.2802 69.9913 28.4012 70.8363 26.5142C71.2833 25.5152 71.7243 24.5142 72.1593 23.5092C72.4573 22.8202 72.7163 21.6862 73.2303 21.1152C73.9603 20.3022 74.9553 21.0522 74.0953 21.6742C74.0183 21.7302 73.8823 21.7082 73.8203 21.6392C73.8123 21.6302 73.8033 21.6202 73.7953 21.6112C73.0693 23.2652 70.3003 29.3232 70.0643 29.8462C68.7133 32.8412 67.2883 35.8042 65.8153 38.7402C62.9653 44.4192 60.1133 50.4602 56.4393 55.6572C56.1983 55.9982 55.6853 55.7072 55.8753 55.3292Z" fill="#94792F"></path><path d="M44.4515 55.343C48.1535 49.512 51.9115 43.716 55.6425 37.904L61.0325 29.508C62.7845 26.779 64.3665 23.509 66.5895 21.148C66.7275 21.001 67.0285 21.153 66.9455 21.355C65.7275 24.361 63.4345 27.159 61.6895 29.892L56.3205 38.3C52.6035 44.121 48.9125 49.959 45.1665 55.761C44.8785 56.207 44.1645 55.795 44.4515 55.343Z" fill="#94792F"></path><path d="M35.8227 56.0891C39.7247 49.7221 44.1348 43.6101 48.4798 37.5401C52.6898 31.6591 56.8928 25.6461 61.6438 20.1841C61.8078 19.9951 62.1378 20.2451 61.9928 20.4541C57.8048 26.4921 53.2038 32.2531 48.9418 38.2431C44.6718 44.2441 40.6988 50.4381 36.5068 56.4891C36.2208 56.9021 35.5527 56.5301 35.8227 56.0891Z" fill="#94792F"></path><path d="M173.037 58.3949C140.33 58.3599 107.624 58.3769 74.9167 58.3869C71.0137 58.3829 67.1107 58.3829 63.2067 58.3789C52.8227 58.3679 42.4317 58.2909 32.0497 58.4699C31.9817 58.4709 31.9247 58.4869 31.8717 58.5079C31.7357 58.5099 31.6007 58.5099 31.4647 58.5119C30.9237 58.5199 30.9227 59.3449 31.4647 59.3529C31.6007 59.3549 31.7367 59.3559 31.8737 59.3579C31.9257 59.3789 31.9827 59.3949 32.0497 59.3959C39.3707 59.5219 46.6937 59.5599 54.0187 59.5609C83.3177 59.7229 112.629 59.4879 141.922 59.4829C152.294 59.4809 162.665 59.4829 173.037 59.4719C173.384 59.4719 173.558 59.2029 173.557 58.9329C173.558 58.6649 173.384 58.3949 173.037 58.3949Z" fill="#94792F"></path><path d="M91.3845 105.878C89.6545 105.636 87.4095 105.172 85.7665 105.956C85.6455 106.014 85.6455 106.219 85.7665 106.277C87.4095 107.061 89.6555 106.596 91.3845 106.355C91.6205 106.321 91.6205 105.911 91.3845 105.878Z" fill="#94792F"></path><path d="M90.6635 106.769C90.4765 107.277 90.3005 107.969 90.5695 108.472C90.7515 108.813 91.2155 108.688 91.3325 108.372C91.4135 108.152 91.3835 107.935 91.4095 107.705C91.4355 107.47 91.5055 107.244 91.5865 107.023C91.7975 106.444 90.8735 106.195 90.6635 106.769Z" fill="#94792F"></path><path d="M69.6777 126.219C65.1547 125.652 60.2977 126.131 55.7377 126.141C51.1307 126.151 46.3857 125.845 41.7977 126.277C41.3987 126.314 41.3977 126.861 41.7977 126.898C46.3867 127.329 51.1297 127.023 55.7377 127.034C60.2967 127.044 65.1557 127.524 69.6777 126.956C70.1507 126.897 70.1517 126.278 69.6777 126.219Z" fill="#94792F"></path><path d="M161.506 126.636C161.332 126.622 161.156 126.614 160.982 126.602C160.907 126.538 160.812 126.491 160.685 126.491C160.108 126.492 159.532 126.49 158.956 126.49C154.999 126.33 151.009 126.471 147.058 126.471C144.181 126.471 141.304 126.473 138.427 126.474C137.575 126.456 136.708 126.438 135.855 126.475C134.773 126.476 133.692 126.476 132.61 126.476C131.966 126.476 131.965 127.477 132.61 127.477C133.82 127.478 135.03 127.478 136.24 127.478C136.726 127.488 137.214 127.486 137.699 127.479C140.818 127.48 143.938 127.482 147.057 127.482C151.008 127.482 154.999 127.624 158.956 127.463C159.532 127.464 160.108 127.462 160.684 127.462C160.811 127.462 160.906 127.415 160.981 127.351C161.155 127.339 161.33 127.331 161.505 127.317C161.945 127.284 161.946 126.671 161.506 126.636Z" fill="#94792F"></path><path d="M122.318 73.4199C122.311 73.4189 122.305 73.4189 122.299 73.4179C122.291 73.3229 122.259 73.2269 122.173 73.1399C120.399 71.3759 118.674 69.5069 116.854 67.7689C116.006 66.8829 115.104 66.0069 114.043 65.5129C114.022 65.3819 113.925 65.2619 113.741 65.2399C108.835 64.6619 103.672 65.0899 98.7343 65.0919C96.2973 65.0929 93.8603 65.0959 91.4233 65.1049C89.2753 65.1129 86.9523 64.8989 84.8253 65.3059C84.7273 65.2529 84.5983 65.2519 84.4783 65.3489C84.4653 65.3589 84.4543 65.3699 84.4413 65.3799C84.3903 65.3939 84.3573 65.4269 84.3363 65.4679C81.3313 67.9109 78.6993 70.9189 75.9623 73.6539C75.5523 74.0639 76.1893 74.7019 76.5993 74.2909C76.6993 74.1909 76.8023 74.0919 76.9023 73.9919C80.1743 74.5629 83.7513 74.2209 87.0443 74.2239C91.0063 74.2279 94.9683 74.2339 98.9303 74.2369C102.764 74.2389 106.599 74.2349 110.433 74.2339C114.361 74.2329 118.412 74.5119 122.32 74.0819C122.745 74.0369 122.745 73.4659 122.318 73.4199ZM110.815 73.2679C106.853 73.2669 102.891 73.2619 98.9283 73.2649C95.0943 73.2669 91.2593 73.2729 87.4253 73.2769C84.2133 73.2809 80.7223 72.9499 77.4953 73.4069C80.0073 70.9539 82.6673 68.5439 84.8613 65.8259C86.9793 66.2239 89.2823 66.0119 91.4213 66.0199C93.8583 66.0289 96.2953 66.0319 98.7323 66.0329C103.669 66.0349 108.834 66.4639 113.739 65.8849C113.829 65.8739 113.896 65.8369 113.947 65.7899C114.451 66.8019 115.29 67.6689 116.142 68.4839C117.716 70.1319 119.394 71.7039 121.007 73.3029C117.636 73.0629 114.181 73.2689 110.815 73.2679Z" fill="#94792F"></path><path d="M33.1646 60.0388C33.1556 59.9408 33.0216 59.9408 33.0126 60.0388C32.7076 63.3368 32.8946 66.7358 32.8946 70.0468C32.8946 73.3808 32.8516 76.7228 32.9636 80.0548C32.9696 80.2158 33.2086 80.2158 33.2136 80.0548C33.3256 76.7218 33.2826 73.3808 33.2826 70.0468C33.2826 66.7368 33.4686 63.3348 33.1646 60.0388Z" fill="#94792F"></path><path d="M34.8522 60.299C34.8462 60.205 34.7122 60.205 34.7062 60.299C34.4512 64.383 34.5242 68.558 34.6662 72.647C34.6712 72.792 34.8862 72.792 34.8912 72.647C35.0342 68.558 35.1062 64.383 34.8522 60.299Z" fill="#94792F"></path><path d="M36.3287 61.3149C36.3147 61.2189 36.1727 61.2499 36.1677 61.3369C35.9927 64.0749 36.0737 66.9159 36.1907 69.6569C36.1977 69.8319 36.4427 69.8269 36.4587 69.6569C36.7057 66.9379 36.7307 64.0199 36.3287 61.3149Z" fill="#94792F"></path><path d="M38.0646 62.768C38.0646 62.552 37.7286 62.552 37.7296 62.768C37.7316 64.144 37.6456 65.556 37.7636 66.927C37.7786 67.099 38.0166 67.099 38.0316 66.927C38.1496 65.557 38.0626 64.145 38.0646 62.768Z" fill="#94792F"></path><path d="M40.4532 62.3788C40.4532 62.1008 40.0201 62.0998 40.0201 62.3788C40.0201 63.3728 39.9211 64.4298 40.0721 65.4138C40.0971 65.5768 40.3762 65.5768 40.4012 65.4138C40.5522 64.4298 40.4532 63.3718 40.4532 62.3788Z" fill="#94792F"></path><path d="M171.433 60.5589C171.429 60.3279 171.078 60.3269 171.074 60.5589C170.922 68.6499 170.929 76.7749 171.132 84.8649C171.136 85.0219 171.372 85.0219 171.376 84.8649C171.578 76.7749 171.586 68.6499 171.433 60.5589Z" fill="#94792F"></path><path d="M169.012 60.9221C168.991 60.8261 168.839 60.8261 168.818 60.9221C168.257 63.4831 168.629 66.4591 168.647 69.0751C168.668 72.0391 168.635 75.0151 168.787 77.9751C168.795 78.1401 169.034 78.1401 169.043 77.9751C169.195 75.0151 169.163 72.0381 169.183 69.0751C169.201 66.4501 169.574 63.4881 169.012 60.9221Z" fill="#94792F"></path><path d="M167.184 60.9488C167.178 60.8348 167.013 60.8348 167.007 60.9488C166.893 63.2338 166.916 65.5518 167.001 67.8378C167.005 67.9588 167.185 67.9598 167.19 67.8378C167.275 65.5518 167.297 63.2328 167.184 60.9488Z" fill="#94792F"></path><path d="M165.744 61.0789C165.734 60.9769 165.596 60.9769 165.586 61.0789C165.388 63.1279 165.398 65.2639 165.528 67.3179C165.539 67.4939 165.791 67.4949 165.802 67.3179C165.932 65.2639 165.942 63.1279 165.744 61.0789Z" fill="#94792F"></path><path d="M163.851 61.9892C163.85 61.8172 163.584 61.8162 163.583 61.9892C163.575 63.3312 163.544 64.6782 163.626 66.0182C163.633 66.1362 163.802 66.1362 163.809 66.0182C163.89 64.6772 163.86 63.3312 163.851 61.9892Z" fill="#94792F"></path><path d="M121.877 136.262C121.79 135.956 121.35 136.087 121.407 136.392C121.849 138.769 121.922 141.186 122.333 143.55C122.385 143.851 122.794 143.739 122.824 143.484C123.087 141.196 122.501 138.453 121.877 136.262Z" fill="#94792F"></path><path d="M122.584 73.9548C120.717 76.3678 117.348 76.4958 115.529 73.9438C115.399 73.7618 115.138 73.7408 115.012 73.9438C113.717 76.0348 110.892 75.5528 109.721 73.6698C109.613 73.4958 109.347 73.4848 109.242 73.6698C107.928 75.9708 104.924 76.1438 103.366 73.9578C103.249 73.7938 103.02 73.7368 102.865 73.8928C101.648 75.1178 99.7831 75.0368 98.5911 73.8068C98.4251 73.6358 98.2131 73.7878 98.2061 73.9728C98.1881 73.9888 98.1681 73.9998 98.1521 74.0218C96.9411 75.6318 94.8531 75.4408 93.8301 73.7988C93.7191 73.6218 93.4231 73.5928 93.3201 73.7988C92.3971 75.6438 90.1551 75.7128 89.1721 73.8798C89.0801 73.7088 88.8041 73.6628 88.6721 73.8158C87.6311 75.0258 85.9601 75.2198 84.7291 74.1638C84.6301 74.0788 84.5181 74.0718 84.4201 74.1048C84.4041 73.8798 84.0451 73.7348 83.8671 73.9778C83.1681 74.9358 80.2041 76.2698 80.0481 73.9748C80.0331 73.7478 79.6831 73.5928 79.5711 73.8458C79.4321 74.2818 79.1451 74.6118 78.7111 74.8358C77.7331 75.3948 77.0871 75.0328 76.7731 73.7518C76.8721 73.5818 76.6461 73.4128 76.5051 73.5448C75.7201 74.2828 76.3321 75.2748 77.2381 75.5328C78.1871 75.8028 79.1291 75.4128 79.6821 74.6848C80.3351 76.4468 83.0551 75.7518 84.1951 74.4858C84.2111 74.5298 84.2361 74.5728 84.2811 74.6118C85.6481 75.7918 87.5671 75.7668 88.8411 74.5418C90.0731 76.2678 92.4241 76.2628 93.5971 74.5018C94.9151 76.2018 97.1991 76.1778 98.5981 74.4848C99.8391 75.6728 101.723 75.6748 103.047 74.5668C104.863 76.7458 107.843 76.6148 109.471 74.3258C110.112 75.2838 111.088 75.9638 112.291 76.0138C112.944 76.0408 113.579 75.8648 114.142 75.5408C114.58 75.2888 114.958 74.7198 115.37 74.7798C115.706 74.8288 116.745 76.0168 117.19 76.2198C117.941 76.5618 118.756 76.7018 119.578 76.6058C121.099 76.4278 122.248 75.5818 123.072 74.3318C123.263 74.0418 122.801 73.6738 122.584 73.9548Z" fill="#94792F"></path><path d="M171.926 117.554C171.925 109.559 171.924 101.566 171.733 93.5728C171.73 93.4588 171.559 93.4588 171.556 93.5728C171.366 101.566 171.364 109.559 171.363 117.554C171.362 125.521 171.009 133.58 171.452 141.535C171.466 141.782 171.822 141.782 171.836 141.535C172.28 133.581 171.927 125.52 171.926 117.554Z" fill="#94792F"></path><path d="M170.396 125.548C170.395 125.481 170.293 125.481 170.292 125.548C170.209 131.382 169.924 137.265 170.204 143.095C170.213 143.275 170.476 143.276 170.484 143.095C170.764 137.265 170.478 131.381 170.396 125.548Z" fill="#94792F"></path><path d="M168.401 136.206C168.401 136.03 168.127 136.029 168.127 136.206C168.126 137.883 168.015 139.605 168.179 141.275C168.19 141.384 168.34 141.385 168.351 141.275C168.514 139.604 168.403 137.884 168.401 136.206Z" fill="#94792F"></path><path d="M165.407 141.896C158.766 141.63 152.101 141.755 145.455 141.754C138.842 141.753 132.098 141.386 125.503 141.878C125.276 141.895 125.275 142.214 125.503 142.231C132.098 142.723 138.842 142.356 145.455 142.355C152.1 142.354 158.766 142.479 165.407 142.213C165.61 142.205 165.611 141.904 165.407 141.896Z" fill="#94792F"></path><path d="M68.9613 141.392C62.8803 141.064 56.7313 141.26 50.6423 141.264C47.5893 141.266 44.5363 141.268 41.4833 141.27C38.7063 141.272 35.8153 141.057 33.0603 141.438C32.9643 141.451 32.9643 141.619 33.0603 141.632C35.8153 142.013 38.7053 141.798 41.4833 141.8C44.5363 141.802 47.5893 141.804 50.6423 141.806C56.7303 141.81 62.8803 142.006 68.9613 141.678C69.1453 141.668 69.1463 141.402 68.9613 141.392Z" fill="#94792F"></path><path d="M33.3478 114.824C33.3028 107.05 33.7118 99.1169 33.1928 91.3629C33.1838 91.2299 32.9948 91.2299 32.9858 91.3629C32.4678 99.1169 32.8758 107.05 32.8318 114.824C32.7868 122.603 32.4028 130.519 32.8618 138.285C32.8788 138.579 33.3018 138.579 33.3188 138.285C33.7758 130.52 33.3918 122.603 33.3478 114.824Z" fill="#94792F"></path><path d="M34.9288 121.908C34.9208 121.716 34.6378 121.716 34.6308 121.908C34.3788 128.229 34.3197 134.696 34.6367 141.015C34.6457 141.199 34.9138 141.2 34.9228 141.015C35.2398 134.697 35.1808 128.229 34.9288 121.908Z" fill="#94792F"></path><path d="M36.8998 135.946C36.8828 135.727 36.5758 135.726 36.5588 135.946C36.4488 137.384 36.3938 138.931 36.5498 140.365C36.5748 140.596 36.8838 140.596 36.9088 140.365C37.0648 138.931 37.0098 137.383 36.8998 135.946Z" fill="#94792F"></path><path d="M66.6822 1.02893C66.6602 0.78593 66.3272 0.78593 66.3042 1.02893C66.0752 3.49893 66.1382 6.08893 66.2282 8.56793C66.2402 8.90893 66.7462 8.90893 66.7582 8.56793C66.8482 6.08893 66.9102 3.49893 66.6822 1.02893Z" fill="#94792F"></path><path d="M75.0626 2.45795C75.0546 2.00395 74.3466 2.00195 74.3556 2.45795C74.3926 4.34995 74.4796 6.26194 74.7696 8.13394C74.8266 8.50494 75.4586 8.42096 75.4276 8.04496C75.2736 6.17996 75.0966 4.33195 75.0626 2.45795Z" fill="#94792F"></path><path d="M125.157 1.21988C125.116 0.926878 124.684 1.02289 124.666 1.28589C124.506 3.69889 124.67 6.14686 124.609 8.56686C124.597 9.02986 125.319 9.02986 125.328 8.56686C125.377 6.14086 125.496 3.62888 125.157 1.21988Z" fill="#94792F"></path><path d="M131.82 3.10885C131.82 2.67385 131.144 2.67285 131.144 3.10885C131.144 4.66685 131.103 6.23084 131.156 7.78784C131.17 8.20684 131.794 8.20784 131.808 7.78784C131.86 6.23084 131.82 4.66685 131.82 3.10885Z" fill="#94792F"></path><path d="M142.01 19.4591C135.317 19.1781 128.564 19.4321 121.865 19.4391C115.279 19.4471 108.693 19.4541 102.107 19.4621C88.7998 19.4771 75.5028 19.5371 62.2038 19.7481C62.0388 19.7511 62.0388 20.0011 62.2038 20.0041C75.5028 20.2161 88.7998 20.2751 102.107 20.2901C108.693 20.2981 115.279 20.3051 121.865 20.3131C128.564 20.3211 135.318 20.5741 142.01 20.2931C142.546 20.2711 142.547 19.4811 142.01 19.4591Z" fill="#94792F"></path><path d="M175.023 53.4891C165.457 53.0901 155.843 53.335 146.27 53.331C136.815 53.327 127.361 53.327 117.906 53.332C98.997 53.343 80.087 53.353 61.178 53.362C50.434 53.367 39.669 53.216 28.928 53.485C28.524 53.495 28.524 54.1021 28.928 54.1131C47.948 54.5891 67.019 54.239 86.045 54.248C104.954 54.257 123.864 54.2771 142.773 54.2691C153.508 54.2641 164.295 54.557 175.023 54.11C175.423 54.094 175.423 53.5061 175.023 53.4891Z" fill="#94792F"></path><path d="M122.018 138.988C121.915 138.522 121.282 138.677 121.24 139.093C121.009 141.396 119.508 142.293 117.289 142.067C116.325 141.969 114.486 141.779 114.086 140.621C113.704 139.514 114.611 138.532 115.322 137.859C115.759 137.446 115.101 136.79 114.663 137.2C114.161 137.67 113.682 138.229 113.382 138.853C112.15 136.567 107.884 134.941 107.021 136.513C106.953 136.538 106.889 136.581 106.841 136.659C106.616 137.03 106.406 137.465 106.243 137.928C105.776 136.919 104.881 136.091 103.813 135.684C102.33 135.119 100.282 135.451 99.1858 136.661C99.1468 136.457 99.0918 136.255 98.9988 136.064C98.8998 135.859 98.5298 135.898 98.4918 136.13C98.1358 138.311 97.7508 140.109 95.2058 140.59C94.3088 140.76 93.1968 140.875 92.2968 140.666C91.4728 140.475 91.0118 140.076 90.8148 139.585C90.8218 139.282 90.7928 138.984 90.7148 138.703C90.7828 138.172 91.0448 137.613 91.4268 137.119C91.6498 136.83 91.1608 136.454 90.9198 136.728C90.6458 137.039 90.4028 137.395 90.2128 137.773C90.0878 137.632 89.9458 137.5 89.7758 137.387C89.0568 136.907 86.4948 135.944 85.3488 136.522C85.2228 136.422 85.0458 136.399 84.9048 136.56C84.6678 136.831 84.4578 137.132 84.2798 137.449C84.2078 137.189 84.1248 136.94 84.0208 136.722C83.6058 135.857 82.4428 135.224 81.9988 136.41C81.8898 136.702 82.3418 136.977 82.5388 136.724C82.7948 136.79 83.0498 136.856 83.3058 136.921C83.4388 137.177 83.5308 137.445 83.5818 137.726C83.6558 138.07 83.6798 138.423 83.6988 138.773C83.7038 138.858 83.7088 138.956 83.7148 139.05C83.6538 139.443 83.6508 139.837 83.7148 140.222C83.6948 140.434 83.6628 140.638 83.5998 140.812C82.8858 142.77 79.2438 142.554 78.8158 140.492C78.7988 140.409 78.6878 140.425 78.6628 140.492C78.1538 141.85 79.7338 142.542 80.8048 142.727C82.1298 142.955 83.5808 142.731 84.1548 141.383C84.3088 141.625 84.4978 141.856 84.7338 142.067C86.0608 143.256 88.5658 143.64 89.8148 142.192C90.1378 141.817 90.4018 141.345 90.5788 140.839C91.3248 141.524 92.4818 141.64 93.4978 141.631C92.6738 141.83 91.8658 142.133 91.0998 142.558C90.8548 142.694 91.0718 143.058 91.3178 142.931C93.9538 141.582 96.8648 141.786 99.4088 143.219C99.6778 143.371 99.9238 143.193 99.9978 142.967C100.148 143.026 100.3 143.079 100.455 143.117C102.241 143.554 105.198 142.775 106.195 141.033C106.367 141.387 106.62 141.706 106.984 141.963C108.42 142.977 111.954 143.043 113.143 141.574C113.217 141.482 113.281 141.389 113.34 141.297C113.882 142.346 115.115 142.682 116.245 142.886C117.778 143.163 119.515 143.328 120.794 142.272C121.773 141.466 122.294 140.229 122.018 138.988ZM88.9668 141.863C87.8778 142.784 85.6718 142.103 84.9108 141.01C84.6798 140.679 84.5458 140.327 84.4838 139.97C84.5178 139.62 84.5278 139.259 84.5098 138.898C84.5968 138.473 84.7698 138.06 84.9978 137.678C85.1608 137.72 85.3698 137.649 85.4408 137.465C85.7858 136.571 88.9098 137.681 89.3738 138.074C89.6188 138.281 89.7728 138.549 89.8688 138.841C89.8268 139.178 89.8558 139.519 89.9608 139.857C89.8768 140.631 89.4968 141.414 88.9668 141.863ZM95.7408 141.383C96.7098 141.138 97.5788 140.664 98.2508 139.81C98.1758 140.339 98.1608 140.866 98.3498 141.381C98.4268 141.592 98.5348 141.785 98.6628 141.962C97.7158 141.594 96.7308 141.401 95.7408 141.383ZM105.503 140.423C104.829 141.816 101.968 142.69 100.52 142.207C98.3618 141.486 99.3688 139.428 99.3978 137.766C99.3978 137.753 99.3928 137.745 99.3918 137.733C100.481 136.787 101.573 135.95 103.159 136.371C104.796 136.805 106.34 138.691 105.503 140.423ZM111.576 141.499C110.455 141.889 108.635 141.953 107.625 141.28C106.181 140.318 106.747 138.302 107.468 137.025C107.473 137.016 107.472 137.008 107.476 137C108.566 136.55 109.661 136.884 110.677 137.468C111.962 138.206 114.11 140.617 111.576 141.499Z" fill="#94792F"></path><path d="M114.066 137.432C113.849 137.427 113.633 137.422 113.416 137.417C113.302 137.414 113.302 137.596 113.416 137.594C113.633 137.589 113.849 137.584 114.066 137.579C114.16 137.576 114.16 137.435 114.066 137.432Z" fill="#94792F"></path><path d="M32.651 124.502C32.275 123.553 31.3309 123.164 30.3469 123.535C29.8189 123.734 29.478 124.097 29.252 124.538C29.148 123.826 29.0229 123.116 28.8659 122.411C28.6589 121.486 28.4749 120.263 27.6969 119.607C26.2339 118.373 25.746 119.897 25.458 121.247C24.743 119.353 23.2359 116.503 21.4769 117.541C20.7739 117.956 20.546 119.026 20.467 119.747C20.312 121.175 20.33 122.649 20.359 124.117C19.871 123.238 19.148 122.495 18.195 121.922C17.981 121.793 17.6739 121.957 17.6849 122.215C17.7729 124.288 17.862 126.36 17.953 128.433C17.322 127.285 16.577 126.22 15.699 125.218C15.477 124.964 15.062 125.234 15.148 125.539C15.457 126.642 15.474 127.583 15.117 128.649C14.078 127.287 12.843 126.21 11.302 125.396C11.08 125.279 10.8449 125.428 10.8259 125.669C10.7469 126.702 10.667 127.734 10.587 128.767C9.69196 127.621 8.31794 126.479 6.94294 127.551C6.23294 128.104 6.28395 128.956 6.32295 129.77C6.40095 131.422 6.64095 133.085 6.83195 134.735C6.46595 134.643 6.05296 134.76 5.77296 135.14C5.05696 136.114 5.92494 138.381 6.45594 139.843C4.77094 138.479 3.19595 135.88 0.86195 137.322C0.67495 137.438 0.65794 137.672 0.79594 137.831C3.14494 140.549 6.14597 143.394 9.51497 144.798C9.51797 144.8 9.51895 144.802 9.52195 144.804L9.52296 144.803C9.54196 144.81 9.56094 144.821 9.57994 144.829C9.83094 144.932 10.0129 144.504 9.76594 144.389C9.48694 143.755 9.20794 143.12 8.92994 142.486C8.94694 142.425 8.85096 142.38 8.82396 142.441C8.63896 142.867 8.59996 143.257 8.67796 143.616C6.12796 141.812 3.70796 140.092 1.57896 137.725C2.49096 137.505 3.72096 138.102 4.28096 138.63C4.60396 138.934 4.87994 139.288 5.18794 139.606C5.71394 140.15 6.22094 140.572 6.89994 140.913C7.14494 141.035 7.45094 140.833 7.37294 140.549L6.76594 138.337C6.67894 138.021 6.59296 137.705 6.50596 137.389C6.17096 136.74 6.32096 136.148 6.95796 135.612C7.08796 135.889 7.57995 135.761 7.54795 135.452C7.38495 133.913 7.22295 132.373 7.05995 130.834C6.92395 129.55 6.65696 129.389 7.77696 128.538C8.39896 127.629 9.04194 127.651 9.70494 128.605C10.0229 128.985 10.308 129.387 10.561 129.811C10.734 130.083 11.12 129.959 11.144 129.653C11.234 128.503 11.3249 127.353 11.4159 126.203C12.8399 127.037 13.981 128.072 14.933 129.459C15.054 129.636 15.389 129.702 15.493 129.459C15.901 128.506 16.0699 127.592 16.0039 126.638C16.8339 127.736 17.507 128.896 18.069 130.188C18.206 130.503 18.717 130.337 18.704 130.016C18.606 127.635 18.4979 125.254 18.3919 122.873C19.6339 123.822 20.3179 125.172 20.3869 126.791C20.4059 127.236 21.088 127.241 21.082 126.791C21.052 124.608 20.9109 122.379 21.0169 120.198C21.0339 119.843 21.0529 118.796 21.3699 118.556C21.9979 118.079 22.9689 118.517 23.4339 118.904C24.4179 119.724 24.9149 121.387 25.2109 122.588C25.2889 122.902 25.7559 122.894 25.8389 122.588C25.9079 122.331 26.2129 120.581 26.4179 120.433C27.6919 119.514 28.0959 122.107 28.2019 122.594C28.5339 124.12 28.728 125.664 28.837 127.221C28.869 127.672 29.5529 127.683 29.5469 127.221C29.5349 126.872 29.538 126.524 29.557 126.176C29.496 124.882 30.297 124.388 31.958 124.693C32.13 125.114 32.822 124.935 32.651 124.502Z" fill="#94792F"></path><path d="M201.961 137.883C201.713 137.904 201.497 138.096 201.28 138.18C200.709 138.401 200.153 139.182 200.902 138.241C201.755 137.17 203.015 135.992 201.949 134.511C201.737 134.217 201.51 134.027 201.272 133.913C202.3 132.581 204.748 129.451 203.588 128.056C202.939 127.276 202.145 127.434 201.371 127.879C202.285 125.766 202.34 123.016 202.642 121.011C202.679 120.764 202.501 120.544 202.236 120.605C201.555 120.764 200.945 120.98 200.365 121.262C200.866 120.516 201.316 119.737 201.7 118.919C202.061 118.151 202.858 116.818 202.437 115.931C201.844 114.682 200.271 115.276 198.992 116.046C199.546 114.983 199.821 113.789 198.622 113.434C197.21 113.015 195.574 114.218 194.44 115.464C194.698 114.481 194.941 113.48 195.019 112.513C195.082 111.737 195.041 110.997 194.337 110.514C193.515 109.951 192.76 110.157 192.143 110.666C192.532 108.563 192.303 106.134 189.916 106.455C187.788 106.741 186.154 108.389 185.348 110.34C185.261 110.042 185.154 109.744 185.019 109.44C184.949 109.282 184.711 109.239 184.575 109.323C184.429 109.413 184.305 109.504 184.191 109.598C184.293 107.892 184.255 105.673 182.842 105.447C181.742 105.271 180.857 106.502 180.245 107.705C180.215 106.339 180.079 104.982 179.848 103.624C179.801 103.344 179.45 103.325 179.273 103.472C175.707 106.432 173.591 111.011 174.139 115.669C174.17 115.934 174.569 115.951 174.565 115.669C174.506 111.31 176.026 107.299 179.262 104.391C179.498 106.103 179.556 107.785 179.48 109.522C179.461 109.964 180.074 109.995 180.21 109.621C180.481 108.878 182.517 104.686 183.309 107.176C183.681 108.346 183.38 110.069 183.408 111.287C183.418 111.72 184.066 111.719 184.08 111.287C184.737 110.615 185.015 110.665 184.916 111.437C184.929 111.508 184.933 111.579 184.942 111.651C184.83 112.185 184.778 112.724 184.797 113.249C184.81 113.606 185.369 113.718 185.447 113.337C185.453 113.307 185.453 113.279 185.459 113.249V113.248C185.554 112.756 185.582 112.288 185.57 111.83C185.863 110.226 186.747 108.788 188.185 107.875C189.393 107.108 191.045 106.948 191.494 108.645C191.814 109.856 191.349 111.312 190.866 112.441C190.821 112.541 190.778 112.639 190.742 112.733C190.595 113.11 191.207 113.361 191.393 113.008C191.495 112.815 191.598 112.573 191.696 112.306C191.752 112.176 191.808 112.047 191.865 111.918C192.699 111.949 193.532 111.98 194.365 112.012C194.559 112.329 194.078 113.594 194.003 113.924C193.774 114.934 193.536 115.942 193.332 116.957C193.258 117.326 193.768 117.588 193.967 117.225C194.581 116.108 195.427 115.19 196.567 114.597C196.889 114.47 197.211 114.344 197.533 114.217L198.382 115.66C198.392 115.992 197.678 116.827 197.411 117.159C197.409 117.16 197.407 117.162 197.405 117.164L197.406 117.165C197.386 117.189 197.363 117.217 197.349 117.235C197.087 117.574 197.62 117.898 197.904 117.663C198.501 117.17 199.119 116.733 199.82 116.404C201.792 115.48 201.736 117.255 201.1 118.569C200.429 119.956 199.559 121.177 198.597 122.379C198.303 122.747 198.756 123.223 199.121 122.903C199.973 122.154 200.868 121.701 201.913 121.388C201.568 123.675 201.4 127.063 199.844 128.868C199.774 128.812 199.702 128.759 199.613 128.716C198.744 128.3 197.41 129.222 196.76 129.629C196.383 129.865 196.027 130.124 195.685 130.397C196.275 129.283 196.782 128.125 197.183 126.922C197.482 126.023 198.392 124.072 197.295 123.323C196.125 122.524 193.296 123.719 192.211 124.171C190.888 124.722 189.699 125.487 188.615 126.393C189.307 124.443 189.378 122.367 188.85 120.291C188.783 120.028 188.443 119.95 188.255 120.134C187.238 121.129 186.374 122.221 185.656 123.398C185.589 122.965 185.384 122.568 184.949 122.237C183.896 121.438 182.793 122.373 181.934 123.435C182.345 121.487 182.194 119.515 181.481 117.559C181.413 117.374 181.188 117.237 181 117.363C180.188 117.91 179.547 118.547 179.028 119.308C179.041 117.058 178.954 114.816 178.774 112.569C178.755 112.333 178.504 112.14 178.278 112.284C175.363 114.141 173.609 117.262 173.682 120.734C173.69 121.149 174.318 121.15 174.328 120.734C174.396 117.678 175.736 114.994 178.162 113.191C178.359 115.639 178.423 118.089 178.366 120.545C178.359 120.853 178.835 121.01 178.973 120.709C179.457 119.666 180.104 118.862 180.993 118.187C181.734 120.532 181.641 122.884 180.696 125.192C180.544 125.563 181.101 125.732 181.303 125.448C181.671 124.93 182.453 123.485 183.058 123.253C184.739 123.161 185.329 123.612 184.825 124.608C184.752 125.011 184.606 125.385 184.386 125.729C184.053 126.522 183.749 127.139 183.743 128.017C183.74 128.407 184.325 128.491 184.426 128.109C185.13 125.426 186.408 123.111 188.295 121.12C188.727 123.439 188.328 125.655 187.168 127.755C186.968 128.117 187.461 128.533 187.756 128.209C188.816 127.048 190.019 126.073 191.411 125.337C192.269 124.883 195.282 123.444 196.339 123.878C198.661 124.832 194.071 131.781 193.236 132.944C192.959 133.33 193.593 133.688 193.869 133.314C194.53 132.42 197.752 128.904 198.926 129.649C198.568 129.914 198.882 130.44 199.293 130.328C199.418 131.711 197.515 134.155 196.815 135.078C196.638 135.311 196.879 135.651 197.141 135.646C197.704 135.635 198.131 135.518 198.644 135.29C198.886 135.182 199.229 134.87 199.487 134.84C201.195 136.043 201.507 136.971 200.421 137.625C200.142 137.871 199.842 138.091 199.523 138.283C199.34 138.405 199.29 138.611 199.385 138.808C199.76 139.584 200.305 139.362 201.016 139.262C201.712 139.164 201.42 138.397 201.876 139.392C202.226 140.154 201.688 140.547 201.287 141.172C200.624 142.205 199.958 143.232 199.357 144.303C199.113 144.737 199.736 145.083 200.015 144.687C200.984 143.31 202.018 141.847 202.784 140.342C203.06 139.8 203.431 139.054 203.108 138.44C202.87 137.988 202.467 137.841 201.961 137.883ZM198.027 134.696C198.922 133.429 200.364 131.161 200.275 129.757C200.298 129.739 200.318 129.725 200.341 129.706C201.14 129.065 202.167 127.318 202.535 129.155C202.853 130.741 201.34 132.481 200.395 133.698C200.37 133.731 200.36 133.763 200.344 133.796C199.593 133.909 198.79 134.412 198.027 134.696Z" fill="#94792F"></path><path d="M31.0194 109.39C30.8734 109.122 30.5334 109.178 30.3754 109.39C30.1924 109.636 30.0334 109.883 29.8954 110.133C29.7224 108.508 29.2064 106.802 27.8184 106.518C26.9144 106.333 26.3294 106.754 25.9624 107.396C25.6974 106.746 25.2764 106.151 24.6804 105.639C24.4914 105.476 24.2374 105.506 24.0964 105.714C23.2094 107.025 22.6334 108.447 22.3874 109.942C22.2204 109.705 22.0314 109.475 21.8074 109.254C21.6244 109.073 21.3404 109.126 21.2054 109.332C20.6024 110.245 20.1784 111.187 19.8774 112.181C19.4534 111.413 18.6924 110.874 17.6854 110.976C16.8294 111.063 16.2194 111.592 15.9064 112.274C15.4234 111.228 14.7164 110.234 13.7514 110.413C12.4414 110.657 11.9494 112.648 11.8084 114.205C11.4264 113.638 10.9464 113.155 10.3114 112.743C10.1424 112.633 9.88241 112.738 9.83841 112.936C9.23441 115.631 9.28443 118.257 10.0394 120.88C9.63443 120.678 9.22943 120.476 8.82443 120.275C8.62643 120.176 8.33943 120.293 8.35443 120.545C8.38943 121.147 8.37343 121.648 8.29843 122.191C7.55843 121.238 6.50941 120.727 5.21441 120.707C4.99041 120.703 4.87143 120.913 4.90643 121.111C5.35443 123.641 6.32442 125.896 7.96142 127.883C8.17242 128.139 8.62141 127.798 8.42541 127.525C7.06841 125.639 6.10642 123.63 5.61642 121.371C6.76442 121.488 7.62341 122.081 8.19641 123.171C8.31841 123.404 8.70741 123.355 8.76541 123.097C8.92041 122.405 8.99242 121.746 8.99042 121.055C9.45642 121.287 9.92142 121.52 10.3874 121.752C10.6144 121.865 10.9394 121.675 10.8474 121.399C9.98741 118.83 9.80941 116.227 10.3604 113.594C11.0524 114.154 11.4964 114.8 11.7844 115.706C11.9004 116.072 12.4944 116.025 12.4774 115.612C12.4424 114.757 12.4164 112.69 13.1904 112.043C14.8654 110.644 15.5714 113.427 15.8344 114.267C15.8374 114.266 15.8414 114.264 15.8444 114.263C15.8564 114.294 15.8594 114.328 15.8734 114.358C16.0444 114.756 16.7024 114.472 16.5714 114.064C16.5224 113.911 16.4604 113.717 16.3884 113.503C16.2464 112.681 16.8574 112.092 18.2394 111.74C19.3124 112.254 19.7194 113.039 19.4604 114.095L19.4644 114.096C19.4604 114.13 19.4514 114.162 19.4474 114.196C19.3984 114.62 20.1004 114.71 20.1914 114.297C20.2134 114.198 20.2294 114.098 20.2404 113.996C20.4344 112.606 20.8884 111.363 21.6024 110.173C21.9334 110.583 22.1474 111.015 22.2604 111.485C22.2554 111.945 22.2694 112.408 22.3254 112.877C22.3844 113.372 23.0404 113.375 23.0984 112.877C23.1604 112.338 23.1384 111.835 23.0314 111.363C23.0674 109.629 23.5444 108.007 24.4894 106.492C25.0994 107.141 25.4484 107.903 25.5114 108.748C25.4354 109.192 25.4094 109.632 25.4204 109.998C25.4324 110.419 26.0934 110.547 26.1834 110.101C26.2694 109.674 26.3034 109.257 26.2864 108.854C27.8964 107.798 28.7804 107.903 28.9284 109.187C29.4624 110.048 29.2624 111.618 29.2044 112.607C29.1764 113.091 29.9184 113.084 29.9544 112.607C30.0204 111.735 30.2534 111.013 30.6644 110.316C30.9504 110.976 31.0214 111.683 30.8654 112.441C30.7934 112.922 31.5304 113.126 31.5994 112.643C31.7704 111.434 31.6094 110.47 31.0194 109.39Z" fill="#94792F"></path><path d="M182.503 136.948C181.934 137.175 181.405 137.445 180.884 137.737C181.195 136.723 181.504 135.274 180.705 134.896C180.166 134.641 179.572 135.118 179.049 135.744C179.303 134.604 179.32 133.471 178.312 133.532C177.532 133.579 176.728 134.71 176.326 135.282C175.648 136.248 175.285 137.316 175.14 138.479C175.114 138.686 175.462 138.732 175.505 138.528C175.806 137.101 176.444 135.811 177.536 134.821C178.74 133.729 178.431 135.035 178.234 135.826C178.075 136.467 177.878 137.098 177.674 137.727C177.536 138.153 178.11 138.313 178.341 138.008C178.653 137.599 179.901 135.681 180.228 135.899C180.736 136.237 180.133 137.793 179.921 138.415C179.798 138.777 180.261 138.958 180.506 138.756C181.036 138.318 181.596 137.987 182.209 137.717C182.043 138.777 181.653 139.691 181.123 140.66C180.982 140.918 181.348 141.237 181.549 140.989C182.429 139.9 182.795 138.626 182.882 137.239C182.894 137.057 182.68 136.878 182.503 136.948Z" fill="#94792F"></path><path d="M185.977 133.03C185.696 133.185 185.885 133.654 186.198 133.553C186.6 133.424 186.967 133.226 187.312 133.528C187.692 133.861 187.299 134.715 187.118 135.15C186.762 136.005 186.199 136.648 185.668 137.389C185.519 137.597 185.811 137.878 186.018 137.739C187.188 136.954 188.086 135.242 188.159 133.839C188.226 132.554 186.829 132.561 185.977 133.03Z" fill="#94792F"></path><path d="M15.0778 133.5C14.3688 132.52 13.5428 131.738 12.5878 131.001C12.4318 130.881 12.1598 131.006 12.1238 131.19C11.9578 132.051 11.9848 132.813 12.2168 133.557C12.1288 133.524 12.0428 133.49 11.9418 133.46C11.7728 133.409 11.5448 133.521 11.5118 133.704C11.4128 134.249 11.4088 134.692 11.5028 135.121C11.0008 134.84 10.4808 134.714 10.1258 135.279C9.71879 135.927 10.0218 136.897 10.4528 137.711C10.2378 137.75 10.0228 137.849 9.82678 138.037C8.57178 139.24 10.2798 140.734 11.2218 141.289C11.6078 141.516 11.9578 140.916 11.5718 140.689C10.7468 140.407 10.5968 139.757 11.1178 138.742C11.1508 138.785 11.1878 138.837 11.2188 138.874C11.4348 139.137 11.9408 138.854 11.8068 138.531C11.7188 138.318 11.5858 138.139 11.4268 137.999C11.0308 137.455 10.6558 136.769 10.8618 136.146C10.7498 135.605 10.8638 135.499 11.2038 135.829C11.5108 136.015 11.8178 136.2 12.1258 136.384C12.4248 136.563 12.8118 136.199 12.6148 135.895C12.6778 135.525 12.7408 135.155 12.8038 134.785C13.0708 135.071 13.5538 134.7 13.3468 134.366C12.8698 133.599 12.6528 132.754 12.6938 131.871C13.4318 132.449 14.0728 133.072 14.7228 133.771C14.8948 133.957 15.2298 133.71 15.0778 133.5Z" fill="#94792F"></path><path d="M15.0361 117.763C14.7671 118.103 14.5911 118.467 14.5111 118.847C14.3361 118.686 14.1521 118.534 13.9441 118.398C13.8091 118.309 13.5961 118.34 13.4861 118.457C13.1781 118.786 13.1051 119.105 13.1421 119.55C13.1701 119.889 13.3371 120.261 13.3041 120.601C13.2631 121.019 12.9501 121.28 12.8901 121.678C12.7551 122.573 13.6841 123.361 14.5271 123.04C14.7831 122.942 14.7661 122.535 14.4591 122.537C13.1851 122.545 14.0111 121.345 14.0531 120.712C14.0771 120.348 13.8371 119.727 13.8961 119.296C14.2131 119.562 14.4601 119.873 14.6701 120.257C14.8711 120.623 15.5171 120.373 15.3601 119.966C15.1301 119.368 15.1571 118.822 15.5721 118.296C15.8691 117.919 15.3381 117.381 15.0361 117.763Z" fill="#94792F"></path><path d="M23.6645 115.045C23.6145 115.045 23.6145 115.123 23.6645 115.123C23.7155 115.124 23.7155 115.045 23.6645 115.045Z" fill="#94792F"></path><path d="M28.8032 112.866C28.7702 112.608 28.5582 112.484 28.3172 112.587C27.8832 112.774 27.5252 113.029 27.2372 113.347C26.7992 112.623 25.6622 112.397 24.9792 113.375C24.7272 113.736 25.3182 114.076 25.5682 113.719C25.9182 113.944 26.2682 114.168 26.6192 114.392L26.6212 114.393C26.6112 114.422 26.5952 114.445 26.5852 114.474C26.4552 114.843 27.0282 115.078 27.2132 114.739C27.2722 114.632 27.3152 114.526 27.3482 114.423C27.5372 113.971 27.8212 113.624 28.2152 113.373C28.4142 115.124 28.5532 116.944 29.0382 118.628C29.0922 118.818 29.3732 118.778 29.3792 118.582C29.4302 116.685 29.0462 114.745 28.8032 112.866Z" fill="#94792F"></path></svg>